<?xml version="1.0" encoding="us-ascii" standalone="no"?><svg xmlns="http://www.w3.org/2000/svg" xmlns:xlink="http://www.w3.org/1999/xlink" contentStyleType="text/css" height="754px" preserveAspectRatio="none" style="width:1908px;height:754px;background:#FFFFFF;" version="1.1" viewBox="0 0 1908 754" width="1908px" zoomAndPan="magnify"><defs/><g><!--cluster Web / API Layer--><g id="cluster_Web / API Layer"><path d="M1524.5,11.602 L1636.5,11.602 A3.75,3.75 0 0 1 1639,14.102 L1646,36.6699 L1726.5,36.6699 A2.5,2.5 0 0 1 1729,39.1699 L1729,419.102 A2.5,2.5 0 0 1 1726.5,421.602 L1524.5,421.602 A2.5,2.5 0 0 1 1522,419.102 L1522,14.102 A2.5,2.5 0 0 1 1524.5,11.602 " fill="#FFFFFF" style="stroke:#000000;stroke-width:1.0;"/><line style="stroke:#000000;stroke-width:1.0;" x1="1522" x2="1646" y1="36.6699" y2="36.6699"/><text fill="#000000" font-family="Verdana" font-size="14" font-weight="bold" lengthAdjust="spacing" textLength="111" x="1526" y="28.5679">Web / API Layer</text></g><!--cluster BRDD Core Layer--><g id="cluster_BRDD Core Layer"><path d="M563.5,172.602 L680.5,172.602 A3.75,3.75 0 0 1 683,175.102 L690,197.6699 L1349.5,197.6699 A2.5,2.5 0 0 1 1352,200.1699 L1352,582.102 A2.5,2.5 0 0 1 1349.5,584.602 L563.5,584.602 A2.5,2.5 0 0 1 561,582.102 L561,175.102 A2.5,2.5 0 0 1 563.5,172.602 " fill="#FFFFFF" style="stroke:#000000;stroke-width:1.0;"/><line style="stroke:#000000;stroke-width:1.0;" x1="561" x2="690" y1="197.6699" y2="197.6699"/><text fill="#000000" font-family="Verdana" font-size="14" font-weight="bold" lengthAdjust="spacing" textLength="116" x="565" y="189.5679">BRDD Core Layer</text></g><!--cluster Domain Layer--><g id="cluster_Domain Layer"><path d="M808.5,635.602 L905.5,635.602 A3.75,3.75 0 0 1 908,638.102 L915,660.6699 L953.5,660.6699 A2.5,2.5 0 0 1 956,663.1699 L956,745.102 A2.5,2.5 0 0 1 953.5,747.602 L808.5,747.602 A2.5,2.5 0 0 1 806,745.102 L806,638.102 A2.5,2.5 0 0 1 808.5,635.602 " fill="#FFFFFF" style="stroke:#000000;stroke-width:1.0;"/><line style="stroke:#000000;stroke-width:1.0;" x1="806" x2="915" y1="660.6699" y2="660.6699"/><text fill="#000000" font-family="Verdana" font-size="14" font-weight="bold" lengthAdjust="spacing" textLength="96" x="810" y="652.5679">Domain Layer</text></g><!--cluster Contexts--><g id="cluster_Contexts"><path d="M13.5,472.602 L76.5,472.602 A3.75,3.75 0 0 1 79,475.102 L86,497.6699 L178.5,497.6699 A2.5,2.5 0 0 1 181,500.1699 L181,745.102 A2.5,2.5 0 0 1 178.5,747.602 L13.5,747.602 A2.5,2.5 0 0 1 11,745.102 L11,475.102 A2.5,2.5 0 0 1 13.5,472.602 " fill="#FFFFFF" style="stroke:#000000;stroke-width:1.0;"/><line style="stroke:#000000;stroke-width:1.0;" x1="11" x2="86" y1="497.6699" y2="497.6699"/><text fill="#000000" font-family="Verdana" font-size="14" font-weight="bold" lengthAdjust="spacing" textLength="62" x="15" y="489.5679">Contexts</text></g><!--cluster External Layer--><g id="cluster_External Layer"><path d="M371.5,635.602 L471.5,635.602 A3.75,3.75 0 0 1 474,638.102 L481,660.6699 L532.5,660.6699 A2.5,2.5 0 0 1 535,663.1699 L535,745.102 A2.5,2.5 0 0 1 532.5,747.602 L371.5,747.602 A2.5,2.5 0 0 1 369,745.102 L369,638.102 A2.5,2.5 0 0 1 371.5,635.602 " fill="#FFFFFF" style="stroke:#000000;stroke-width:1.0;"/><line style="stroke:#000000;stroke-width:1.0;" x1="369" x2="481" y1="660.6699" y2="660.6699"/><text fill="#000000" font-family="Verdana" font-size="14" font-weight="bold" lengthAdjust="spacing" textLength="99" x="373" y="652.5679">External Layer</text></g><!--entity Client / External--><g id="elem_Client / External"><rect fill="#FFFFFF" height="58.1358" rx="2.5" ry="2.5" style="stroke:#000000;stroke-width:1.0;" width="127" x="1550.5" y="210.602"/><text fill="#000000" font-family="Verdana" font-size="14" font-style="italic" lengthAdjust="spacing" textLength="47" x="1590.5" y="235.5679">&#171;Actor&#187;</text><text fill="#000000" font-family="Verdana" font-size="14" lengthAdjust="spacing" textLength="107" x="1560.5" y="254.6358">Client / External</text></g><!--entity Router / Controller--><g id="elem_Router / Controller"><rect fill="#FFFFFF" height="58.1358" rx="2.5" ry="2.5" style="stroke:#000000;stroke-width:1.0;" width="145" x="1552.5" y="347.602"/><text fill="#000000" font-family="Verdana" font-size="14" font-style="italic" lengthAdjust="spacing" textLength="86" x="1582" y="372.5679">&#171;Component&#187;</text><text fill="#000000" font-family="Verdana" font-size="14" lengthAdjust="spacing" textLength="125" x="1562.5" y="391.6358">Router / Controller</text></g><!--entity ResponseService--><g id="elem_ResponseService"><rect fill="#FFFFFF" height="58.1358" rx="2.5" ry="2.5" style="stroke:#000000;stroke-width:1.0;" width="133" x="1538.5" y="49.602"/><text fill="#000000" font-family="Verdana" font-size="14" font-style="italic" lengthAdjust="spacing" textLength="86" x="1562" y="74.5679">&#171;Component&#187;</text><text fill="#000000" font-family="Verdana" font-size="14" lengthAdjust="spacing" textLength="113" x="1548.5" y="93.6358">ResponseService</text></g><!--entity UseCase--><g id="elem_UseCase"><rect fill="#FFFFFF" height="58.1358" rx="2.5" ry="2.5" style="stroke:#000000;stroke-width:1.0;" width="115" x="741.5" y="347.602"/><text fill="#000000" font-family="Verdana" font-size="14" font-style="italic" lengthAdjust="spacing" textLength="95" x="751.5" y="372.5679">&#171;Orchestrator&#187;</text><text fill="#000000" font-family="Verdana" font-size="14" lengthAdjust="spacing" textLength="57" x="770.5" y="391.6358">UseCase</text></g><!--entity ValidateService--><g id="elem_ValidateService"><rect fill="#FFFFFF" height="58.1358" rx="2.5" ry="2.5" style="stroke:#000000;stroke-width:1.0;" width="122" x="577" y="510.602"/><text fill="#000000" font-family="Verdana" font-size="14" font-style="italic" lengthAdjust="spacing" textLength="86" x="595" y="535.5679">&#171;Component&#187;</text><text fill="#000000" font-family="Verdana" font-size="14" lengthAdjust="spacing" textLength="102" x="587" y="554.6358">ValidateService</text></g><!--entity EnrichService--><g id="elem_EnrichService"><rect fill="#FFFFFF" height="58.1358" rx="2.5" ry="2.5" style="stroke:#000000;stroke-width:1.0;" width="111" x="823.5" y="510.602"/><text fill="#000000" font-family="Verdana" font-size="14" font-style="italic" lengthAdjust="spacing" textLength="86" x="836" y="535.5679">&#171;Component&#187;</text><text fill="#000000" font-family="Verdana" font-size="14" lengthAdjust="spacing" textLength="91" x="833.5" y="554.6358">EnrichService</text></g><!--entity BusinessService--><g id="elem_BusinessService"><rect fill="#FFFFFF" height="58.1358" rx="2.5" ry="2.5" style="stroke:#000000;stroke-width:1.0;" width="128" x="1192" y="510.602"/><text fill="#000000" font-family="Verdana" font-size="14" font-style="italic" lengthAdjust="spacing" textLength="86" x="1213" y="535.5679">&#171;Component&#187;</text><text fill="#000000" font-family="Verdana" font-size="14" lengthAdjust="spacing" textLength="108" x="1202" y="554.6358">BusinessService</text></g><!--entity ClientService--><g id="elem_ClientService"><rect fill="#FFFFFF" height="58.1358" rx="2.5" ry="2.5" style="stroke:#000000;stroke-width:1.0;" width="107" x="993.5" y="510.602"/><text fill="#000000" font-family="Verdana" font-size="14" font-style="italic" lengthAdjust="spacing" textLength="86" x="1004" y="535.5679">&#171;Component&#187;</text><text fill="#000000" font-family="Verdana" font-size="14" lengthAdjust="spacing" textLength="87" x="1003.5" y="554.6358">ClientService</text></g><!--entity Listener--><g id="elem_Listener"><rect fill="#FFFFFF" height="58.1358" rx="2.5" ry="2.5" style="stroke:#000000;stroke-width:1.0;" width="106" x="620" y="210.602"/><text fill="#000000" font-family="Verdana" font-size="14" font-style="italic" lengthAdjust="spacing" textLength="86" x="630" y="235.5679">&#171;Component&#187;</text><text fill="#000000" font-family="Verdana" font-size="14" lengthAdjust="spacing" textLength="54" x="646" y="254.6358">Listener</text></g><!--entity Domain Model--><g id="elem_Domain Model"><rect fill="#FFFFFF" height="58.1358" rx="2.5" ry="2.5" style="stroke:#000000;stroke-width:1.0;" width="118" x="822" y="673.602"/><text fill="#000000" font-family="Verdana" font-size="14" font-style="italic" lengthAdjust="spacing" textLength="44" x="859" y="698.5679">&#171;Data&#187;</text><text fill="#000000" font-family="Verdana" font-size="14" lengthAdjust="spacing" textLength="98" x="832" y="717.6358">Domain Model</text></g><!--entity ExecutionContext--><g id="elem_ExecutionContext"><rect fill="#FFFFFF" height="58.1358" rx="2.5" ry="2.5" style="stroke:#000000;stroke-width:1.0;" width="136" x="29" y="510.602"/><text fill="#000000" font-family="Verdana" font-size="14" font-style="italic" lengthAdjust="spacing" textLength="62" x="66" y="535.5679">&#171;Context&#187;</text><text fill="#000000" font-family="Verdana" font-size="14" lengthAdjust="spacing" textLength="116" x="39" y="554.6358">ExecutionContext</text></g><!--entity ValidationContext--><g id="elem_ValidationContext"><rect fill="#FFFFFF" height="58.1358" rx="2.5" ry="2.5" style="stroke:#000000;stroke-width:1.0;" width="138" x="27" y="673.602"/><text fill="#000000" font-family="Verdana" font-size="14" font-style="italic" lengthAdjust="spacing" textLength="62" x="65" y="698.5679">&#171;Context&#187;</text><text fill="#000000" font-family="Verdana" font-size="14" lengthAdjust="spacing" textLength="118" x="37" y="717.6358">ValidationContext</text></g><!--entity External Domain--><g id="elem_External Domain"><rect fill="#FFFFFF" height="58.1358" rx="2.5" ry="2.5" style="stroke:#000000;stroke-width:1.0;" width="134" x="385" y="673.602"/><text fill="#000000" font-family="Verdana" font-size="14" font-style="italic" lengthAdjust="spacing" textLength="114" x="395" y="698.5679">&#171;External System&#187;</text><text fill="#000000" font-family="Verdana" font-size="14" lengthAdjust="spacing" textLength="111" x="396.5" y="717.6358">External Domain</text></g><!--link Client / External to Router / Controller--><g id="link_Client / External_Router / Controller"><path d="M1616.31,268.902 C1618.18,291.942 1620.3318,318.3319 1622.2118,341.3619 " fill="none" id="Client / External-to-Router / Controller" style="stroke:#000000;stroke-width:1.0;"/><polygon fill="#000000" points="1622.7,347.342,1625.9545,338.0464,1622.2932,342.3586,1617.981,338.6973,1622.7,347.342" style="stroke:#000000;stroke-width:1.0;"/><text fill="#000000" font-family="Verdana" font-size="13" lengthAdjust="spacing" textLength="86" x="1621" y="313.499">Request (DTO)</text></g><!--link Router / Controller to BusinessService--><g id="link_Router / Controller_BusinessService"><path d="M1683.91,405.652 C1706.3,420.082 1723.17,438.432 1708,456.602 C1659.31,514.912 1438.7845,531.5946 1326.0645,536.4346 " fill="none" id="Router / Controller-to-BusinessService" style="stroke:#000000;stroke-width:1.0;"/><polygon fill="#000000" points="1320.07,536.692,1329.2333,540.3022,1325.0654,536.4775,1328.8901,532.3096,1320.07,536.692" style="stroke:#000000;stroke-width:1.0;"/><text fill="#000000" font-family="Verdana" font-size="13" lengthAdjust="spacing" textLength="186" x="1714" y="452.499">Simple Flow (No Orchestration)</text></g><!--link Router / Controller to ClientService--><g id="link_Router / Controller_ClientService"><path d="M1557.01,405.652 C1509.66,423.762 1444.58,445.882 1385,456.602 C1339.04,464.872 1219.87,451.642 1175,464.602 C1142.08,474.112 1113.6336,490.4364 1089.2136,507.1264 " fill="none" id="Router / Controller-to-ClientService" style="stroke:#000000;stroke-width:1.0;"/><polygon fill="#000000" points="1084.26,510.512,1093.9474,508.736,1088.388,507.6907,1089.4333,502.1313,1084.26,510.512" style="stroke:#000000;stroke-width:1.0;"/><text fill="#000000" font-family="Verdana" font-size="13" lengthAdjust="spacing" textLength="186" x="1460" y="452.499">Simple Flow (No Orchestration)</text></g><!--link Router / Controller to UseCase--><g id="link_Router / Controller_UseCase"><path d="M1552.45,376.602 C1390.76,376.602 1009.55,376.602 862.75,376.602 " fill="none" id="Router / Controller-to-UseCase" style="stroke:#000000;stroke-width:1.0;"/><polygon fill="#000000" points="856.75,376.602,865.75,380.602,861.75,376.602,865.75,372.602,856.75,376.602" style="stroke:#000000;stroke-width:1.0;"/><text fill="#000000" font-family="Verdana" font-size="13" lengthAdjust="spacing" textLength="240" x="1084.5" y="369.499">Complex Flow (Delegates Orchestration)</text></g><!--link UseCase to ValidateService--><g id="link_UseCase_ValidateService"><path d="M741.34,382.652 C704.89,389.172 660.39,404.002 637,437.602 C622.37,458.612 623.4858,482.6489 628.2258,504.4589 " fill="none" id="UseCase-to-ValidateService" style="stroke:#000000;stroke-width:1.0;"/><polygon fill="#000000" points="629.5,510.322,631.4974,500.6778,628.4381,505.436,623.6799,502.3768,629.5,510.322" style="stroke:#000000;stroke-width:1.0;"/><text fill="#000000" font-family="Verdana" font-size="13" lengthAdjust="spacing" textLength="145" x="638" y="452.499">Calls for Rules Validation</text></g><!--link UseCase to EnrichService--><g id="link_UseCase_EnrichService"><path d="M792.31,405.682 C789.96,421.262 789.33,440.642 796,456.602 C804.9,477.912 817.7529,492.6225 834.3529,506.6925 " fill="none" id="UseCase-to-EnrichService" style="stroke:#000000;stroke-width:1.0;"/><polygon fill="#000000" points="838.93,510.572,834.6507,501.7014,835.1158,507.3391,829.4781,507.8041,838.93,510.572" style="stroke:#000000;stroke-width:1.0;"/><text fill="#000000" font-family="Verdana" font-size="13" lengthAdjust="spacing" textLength="150" x="797" y="452.499">Calls for Data Enrichment</text></g><!--link UseCase to BusinessService--><g id="link_UseCase_BusinessService"><path d="M856.62,377.992 C927.64,380.582 1050.39,392.032 1144,437.602 C1179.55,454.902 1208.1474,482.4443 1228.8874,505.8143 " fill="none" id="UseCase-to-BusinessService" style="stroke:#000000;stroke-width:1.0;"/><polygon fill="#000000" points="1232.87,510.302,1229.8878,500.9155,1229.5512,506.5623,1223.9043,506.2256,1232.87,510.302" style="stroke:#000000;stroke-width:1.0;"/><text fill="#000000" font-family="Verdana" font-size="13" lengthAdjust="spacing" textLength="143" x="1173" y="452.499">Calls Core Logic / Effects</text></g><!--link UseCase to ClientService--><g id="link_UseCase_ClientService"><path d="M856.81,393.552 C886.77,403.432 923.05,418.012 952,437.602 C981.51,457.572 1004.9263,483.4973 1022.5763,505.7973 " fill="none" id="UseCase-to-ClientService" style="stroke:#000000;stroke-width:1.0;"/><polygon fill="#000000" points="1026.3,510.502,1023.851,500.9625,1023.1969,506.5814,1017.578,505.9274,1026.3,510.502" style="stroke:#000000;stroke-width:1.0;"/><text fill="#000000" font-family="Verdana" font-size="13" lengthAdjust="spacing" textLength="158" x="977" y="452.499">Calls External APIs / Effects</text></g><!--link Listener to UseCase--><g id="link_Listener_UseCase"><path d="M699.41,268.902 C720.92,291.942 747.0366,319.9252 768.5266,342.9552 " fill="none" id="Listener-to-UseCase" style="stroke:#000000;stroke-width:1.0;"/><polygon fill="#000000" points="772.62,347.342,769.4044,338.0329,769.2088,343.6863,763.5553,343.4908,772.62,347.342" style="stroke:#000000;stroke-width:1.0;"/><text fill="#000000" font-family="Verdana" font-size="13" lengthAdjust="spacing" textLength="124" x="745" y="313.499">Triggers from Events</text></g><!--link ValidateService to ValidationContext--><g id="link_ValidateService_ValidationContext"><path d="M576.67,546.682 C449.92,559.452 169.42,588.842 152,600.602 C126.74,617.652 113.6664,644.3831 105.6464,667.9031 " fill="none" id="ValidateService-to-ValidationContext" style="stroke:#000000;stroke-width:1.0;stroke-dasharray:7.0,7.0;"/><polygon fill="#000000" points="103.71,673.582,110.4006,666.3545,105.3237,668.8495,102.8287,663.7726,103.71,673.582" style="stroke:#000000;stroke-width:1.0;"/><text fill="#000000" font-family="Verdana" font-size="13" lengthAdjust="spacing" textLength="119" x="153" y="615.499">creates (Errors only)</text></g><!--link ValidateService to Domain Model--><g id="link_ValidateService_Domain Model"><path d="M678.63,568.632 C700.82,583.842 728.82,602.902 754,619.602 C781.45,637.802 807.4583,654.6346 831.9883,670.3546 " fill="none" id="ValidateService-to-Domain Model" style="stroke:#000000;stroke-width:1.0;"/><polygon fill="#000000" points="837.04,673.592,831.6207,665.3682,832.8303,670.8942,827.3042,672.1037,837.04,673.592" style="stroke:#000000;stroke-width:1.0;"/><text fill="#000000" font-family="Verdana" font-size="13" lengthAdjust="spacing" textLength="198" x="755" y="615.499">validates (requires enriched data)</text></g><!--link EnrichService to Domain Model--><g id="link_EnrichService_Domain Model"><path d="M933.57,568.722 C944.99,577.322 955.53,587.932 962,600.602 C975.86,627.722 957.1283,650.8032 931.9383,669.9332 " fill="none" id="EnrichService-to-Domain Model" style="stroke:#000000;stroke-width:1.0;"/><polygon fill="#000000" points="927.16,673.562,936.7466,671.3044,931.1419,670.538,931.9083,664.9333,927.16,673.562" style="stroke:#000000;stroke-width:1.0;"/><text fill="#000000" font-family="Verdana" font-size="13" lengthAdjust="spacing" textLength="168" x="968" y="615.499">queries &amp; enriches (no logic)</text></g><!--link BusinessService to Domain Model--><g id="link_BusinessService_Domain Model"><path d="M1222.31,568.882 C1201.18,585.482 1172.77,605.852 1145,619.602 C1078.12,652.722 1000.9271,674.4734 946.0271,687.5334 " fill="none" id="BusinessService-to-Domain Model" style="stroke:#000000;stroke-width:1.0;"/><polygon fill="#000000" points="940.19,688.922,949.8714,690.7305,945.0543,687.7648,948.02,682.9477,940.19,688.922" style="stroke:#000000;stroke-width:1.0;"/><text fill="#000000" font-family="Verdana" font-size="13" lengthAdjust="spacing" textLength="140" x="1178" y="615.499">executes business rules</text></g><!--link ClientService to External Domain--><g id="link_ClientService_External Domain"><path d="M1005.82,568.812 C989.76,578.262 970.72,587.642 952,592.602 C926.7,599.302 501.77,584.682 481,600.602 C458.99,617.472 453.2379,643.9215 451.9079,667.5015 " fill="none" id="ClientService-to-External Domain" style="stroke:#000000;stroke-width:1.0;"/><polygon fill="#000000" points="451.57,673.492,456.0705,664.7315,451.8516,668.4999,448.0832,664.281,451.57,673.492" style="stroke:#000000;stroke-width:1.0;"/><text fill="#000000" font-family="Verdana" font-size="13" lengthAdjust="spacing" textLength="238" x="482" y="615.499">interacts (converts Internal &lt;-&gt; External)</text></g><!--link Listener to External Domain--><g id="link_Listener_External Domain"><path d="M619.79,263.342 C557.75,293.142 458.29,351.902 416,437.602 C377.21,516.212 413.1127,617.6283 435.6627,667.8583 " fill="none" id="Listener-to-External Domain" style="stroke:#000000;stroke-width:1.0;"/><polygon fill="#000000" points="438.12,673.332,438.0831,663.4832,436.0722,668.7706,430.7849,666.7596,438.12,673.332" style="stroke:#000000;stroke-width:1.0;"/><text fill="#000000" font-family="Verdana" font-size="13" lengthAdjust="spacing" textLength="61" x="417" y="452.499">consumes</text></g><!--link UseCase to ExecutionContext--><g id="link_UseCase_ExecutionContext"><path d="M741.38,392.942 C678.9,409.402 576.14,435.952 487,456.602 C374.6,482.632 249.0435,508.3651 171.0535,523.9651 " fill="none" id="UseCase-to-ExecutionContext" style="stroke:#000000;stroke-width:1.0;stroke-dasharray:7.0,7.0;"/><polygon fill="#000000" points="165.17,525.142,174.7797,527.299,170.0729,524.1613,173.2106,519.4544,165.17,525.142" style="stroke:#000000;stroke-width:1.0;"/><text fill="#000000" font-family="Verdana" font-size="13" lengthAdjust="spacing" textLength="44" x="566" y="452.499">returns</text></g><!--link ExecutionContext to ValidationContext--><g id="link_ExecutionContext_ValidationContext"><path d="M74.49,568.902 C68.21,578.422 62.23,589.472 59,600.602 C51.77,625.532 60.2104,648.0186 72.2604,668.0786 " fill="none" id="ExecutionContext-to-ValidationContext" style="stroke:#000000;stroke-width:1.0;"/><polygon fill="#000000" points="75.35,673.222,74.1445,663.4472,72.7753,668.9358,67.2867,667.5667,75.35,673.222" style="stroke:#000000;stroke-width:1.0;"/><text fill="#000000" font-family="Verdana" font-size="13" lengthAdjust="spacing" textLength="51" x="60" y="615.499">contains</text></g><!--link ExecutionContext to Domain Model--><g id="link_ExecutionContext_Domain Model"><path d="M165.16,564.762 C220.63,583.262 301.35,607.602 374,619.602 C444.69,631.282 463.96,618.302 535,627.602 C636.87,640.942 747.4959,666.95 815.9959,684.41 " fill="none" id="ExecutionContext-to-Domain Model" style="stroke:#000000;stroke-width:1.0;"/><polygon fill="#000000" points="821.81,685.892,814.0768,679.793,816.9649,684.657,812.1009,687.5451,821.81,685.892" style="stroke:#000000;stroke-width:1.0;"/><text fill="#000000" font-family="Verdana" font-size="13" lengthAdjust="spacing" textLength="82" x="375" y="615.499">contains Data</text></g><!--link UseCase to ResponseService--><g id="link_UseCase_ResponseService"><path d="M837.68,347.402 C915.64,290.602 1084.88,167.562 1092,164.602 C1243.29,101.682 1431.9253,85.5044 1532.3953,81.2744 " fill="none" id="UseCase-to-ResponseService" style="stroke:#000000;stroke-width:1.0;"/><polygon fill="#000000" points="1538.39,81.022,1529.2297,77.4041,1533.3944,81.2323,1529.5662,85.397,1538.39,81.022" style="stroke:#000000;stroke-width:1.0;"/><text fill="#000000" font-family="Verdana" font-size="13" lengthAdjust="spacing" textLength="177" x="1093" y="244.999">hands over ExecutionContext</text></g><!--link BusinessService to ResponseService--><g id="link_BusinessService_ResponseService"><path d="M1314.22,510.482 C1338.33,496.732 1365.21,478.422 1385,456.602 C1482.77,348.852 1452.54,285.832 1533,164.602 C1546.37,144.462 1559.8308,128.1769 1574.2208,112.2269 " fill="none" id="BusinessService-to-ResponseService" style="stroke:#000000;stroke-width:1.0;"/><polygon fill="#000000" points="1578.24,107.772,1569.2413,111.7749,1574.8907,111.4844,1575.1812,117.1338,1578.24,107.772" style="stroke:#000000;stroke-width:1.0;"/><text fill="#000000" font-family="Verdana" font-size="13" lengthAdjust="spacing" textLength="122" x="1471" y="313.499">hands over raw data</text></g><!--link ClientService to ResponseService--><g id="link_ClientService_ResponseService"><path d="M1084.59,510.502 C1109,493.912 1142.27,474.322 1175,464.602 C1191,459.852 1313.21,468.422 1325,456.602 C1374.65,406.812 1303.76,362.542 1333,298.602 C1374.92,206.942 1471.7774,144.7221 1538.2674,110.4321 " fill="none" id="ClientService-to-ResponseService" style="stroke:#000000;stroke-width:1.0;"/><polygon fill="#000000" points="1543.6,107.682,1533.7677,108.2521,1539.1562,109.9737,1537.4345,115.3622,1543.6,107.682" style="stroke:#000000;stroke-width:1.0;"/><text fill="#000000" font-family="Verdana" font-size="13" lengthAdjust="spacing" textLength="122" x="1334" y="313.499">hands over raw data</text></g><!--link ResponseService to Client / External--><g id="link_ResponseService_Client / External"><path d="M1606.59,107.662 C1608.23,136.632 1610.4309,175.5916 1612.0709,204.5616 " fill="none" id="ResponseService-to-Client / External" style="stroke:#000000;stroke-width:1.0;"/><polygon fill="#000000" points="1612.41,210.552,1615.8949,201.3403,1612.1274,205.56,1607.9077,201.7924,1612.41,210.552" style="stroke:#000000;stroke-width:1.0;"/><text fill="#000000" font-family="Verdana" font-size="13" lengthAdjust="spacing" textLength="138" x="1610" y="152.499">Unified JSON Response</text></g><!--SRC=[ZLNBRjim4BphAxOvjFOXwLq83CIF0YdIkB2Jzb3qmCXhcmX5kalAiL7qtxkYP5aI9RStchip96TcvNTkYod2JWcf8_igzKwGI24nwSver6xfZWg1C752RnH6qKuahsA3SFKTN-0Zt7szXmTnHBg2tn70ZucIZEB2xE2Gj50_uVRsBd66HgEylZ0PxtDzOhGZenHItZ4vdLTseUMV5fT8UvbWk-DFxHhZnNJAP8IDQpnRd0ZhWNDAjcWTYUeEtuIIA-7wsBbZfaacs_xwEBDIexNz7OKE_VK7QHtgyF7rfqrDoguqtbLkVJ4hzCfEXHCjL2ui7fmj4RC39fcJHfVxnO5-sL2ZhwDEVVAqSQLgixXRZgwsbaT-PLgmT4NZ-dhK4uaO5lWhOzzWC7sQ3wFe0onbkkCiVbBc3SR7dR0swiPwri2Yk44mU3HmJWO_VdY9hENcFwdujhcf2W- -vH9rbTIu0U5dey8DfzG6v6UCPmZYp4n2AGjhGx3853ESFMw3MqclG_DiGL5F-VLjP8V01ROOHhEHIUxrUitV3ji61u8Mq2eu_5cnTVHvNDgYFP7SR93uocHIcEsPrh94WIWtDwFEhCUG47gP1pCYmqH6g-EmWy6Vt1p06FPb5yE90ok9L-WrmnLmGJ1JI-DE7iuwISQ-Fw6PK1jGkOnC4OZTIO9-rXdwKhO3vVPNizT41uCRWsHHIB3YC4YCtYFnwbwNRRSCEc66WIKTR4nXizIVNndcRGY_IJ7_nRYCD5iT5kifRrd7Ipwi7zLMw0JmuGucAVZRYM4hz8eZmL90-uW-Lowpa7ZpkUZsv7-nGLzjgXfVs1YUjLnB3kFdvVmHJhZeBm00]--></g></svg>