<?xml version="1.0" encoding="us-ascii" standalone="no"?><svg xmlns="http://www.w3.org/2000/svg" xmlns:xlink="http://www.w3.org/1999/xlink" contentStyleType="text/css" height="1597px" preserveAspectRatio="none" style="width:1527px;height:1597px;background:#FFFFFF;" version="1.1" viewBox="0 0 1527 1597" width="1527px" zoomAndPan="magnify"><defs/><g><ellipse cx="625.0625" cy="20" fill="#222222" rx="10" ry="10" style="stroke:#222222;stroke-width:1.0;"/><rect fill="#F1F1F1" height="36.3441" rx="12.5" ry="12.5" style="stroke:#181818;stroke-width:0.5;" width="120" x="565.0625" y="50"/><text fill="#000000" font-family="sans-serif" font-size="12" lengthAdjust="spacing" textLength="100" x="575.0625" y="72.8281">Client faz Request</text><rect fill="#F1F1F1" height="36.3441" rx="12.5" ry="12.5" style="stroke:#181818;stroke-width:0.5;" width="213" x="518.5625" y="106.3441"/><text fill="#000000" font-family="sans-serif" font-size="12" lengthAdjust="spacing" textLength="193" x="528.5625" y="129.1722">Router / Controller recebe Request</text><polygon fill="#F1F1F1" points="515.0625,162.6882,735.0625,162.6882,747.0625,174.6882,735.0625,186.6882,515.0625,186.6882,503.0625,174.6882,515.0625,162.6882" style="stroke:#181818;stroke-width:0.5;"/><text fill="#000000" font-family="sans-serif" font-size="11" lengthAdjust="spacing" textLength="220" x="515.0625" y="178.9562">Requer m&#250;ltiplos servi&#231;os / orquestra&#231;&#227;o?</text><text fill="#000000" font-family="sans-serif" font-size="11" lengthAdjust="spacing" textLength="94" x="409.0625" y="171.4653">N&#227;o - Simple Flow</text><text fill="#000000" font-family="sans-serif" font-size="11" lengthAdjust="spacing" textLength="103" x="747.0625" y="171.4653">Sim - Complex Flow</text><polygon fill="#F1F1F1" points="235.75,196.6882,385.75,196.6882,397.75,208.6882,385.75,220.6882,235.75,220.6882,223.75,208.6882,235.75,196.6882" style="stroke:#181818;stroke-width:0.5;"/><text fill="#000000" font-family="sans-serif" font-size="11" lengthAdjust="spacing" textLength="150" x="235.75" y="212.9562">&#201; L&#243;gica Interna ou Externa?</text><text fill="#000000" font-family="sans-serif" font-size="11" lengthAdjust="spacing" textLength="39" x="184.75" y="205.4653">Interna</text><text fill="#000000" font-family="sans-serif" font-size="11" lengthAdjust="spacing" textLength="40" x="397.75" y="205.4653">Externa</text><rect fill="#F1F1F1" height="36.3441" rx="12.5" ry="12.5" style="stroke:#181818;stroke-width:0.5;" width="294" x="11" y="230.6882"/><text fill="#000000" font-family="sans-serif" font-size="12" lengthAdjust="spacing" textLength="103" x="21" y="253.5163">Controller executa</text><text fill="#000000" font-family="sans-serif" font-size="12" font-weight="bold" lengthAdjust="spacing" textLength="96" x="127" y="253.5163">BusinessService</text><text fill="#000000" font-family="sans-serif" font-size="12" lengthAdjust="spacing" textLength="69" x="226" y="253.5163">diretamente</text><rect fill="#F1F1F1" height="36.3441" rx="12.5" ry="12.5" style="stroke:#181818;stroke-width:0.5;" width="277" x="325" y="230.6882"/><text fill="#000000" font-family="sans-serif" font-size="12" lengthAdjust="spacing" textLength="103" x="335" y="253.5163">Controller executa</text><text fill="#000000" font-family="sans-serif" font-size="12" font-weight="bold" lengthAdjust="spacing" textLength="79" x="441" y="253.5163">ClientService</text><text fill="#000000" font-family="sans-serif" font-size="12" lengthAdjust="spacing" textLength="69" x="523" y="253.5163">diretamente</text><polygon fill="#F1F1F1" points="310.75,273.0323,322.75,285.0323,310.75,297.0323,298.75,285.0323,310.75,273.0323" style="stroke:#181818;stroke-width:0.5;"/><rect fill="#F1F1F1" height="36.3441" rx="12.5" ry="12.5" style="stroke:#181818;stroke-width:0.5;" width="182" x="219.75" y="332.0323"/><text fill="#000000" font-family="sans-serif" font-size="12" lengthAdjust="spacing" textLength="162" x="229.75" y="354.8604">Servi&#231;o retorna dados brutos</text><rect fill="#F1F1F1" height="36.3441" rx="12.5" ry="12.5" style="stroke:#181818;stroke-width:0.5;" width="179" x="849.875" y="196.6882"/><text fill="#000000" font-family="sans-serif" font-size="12" lengthAdjust="spacing" textLength="106" x="859.875" y="219.5163">Controller aciona o</text><text fill="#000000" font-family="sans-serif" font-size="12" font-weight="bold" lengthAdjust="spacing" textLength="50" x="968.875" y="219.5163">UseCase</text><rect fill="none" height="1077.1975" style="stroke:#000000;stroke-width:1.5;" width="884" x="632" y="268.0323"/><path d="M799,268.0323 L799,280.1003 L789,290.1003 L632,290.1003 " fill="none" style="stroke:#000000;stroke-width:1.5;"/><text fill="#000000" font-family="sans-serif" font-size="14" lengthAdjust="spacing" textLength="157" x="635" y="283.9983">BRDD UseCase Pipeline</text><rect fill="#F1F1F1" height="36.3441" rx="12.5" ry="12.5" style="stroke:#181818;stroke-width:0.5;" width="230" x="824.375" y="307.1003"/><text fill="#000000" font-family="sans-serif" font-size="12" lengthAdjust="spacing" textLength="101" x="834.375" y="329.9283">UseCase inicializa</text><text fill="#000000" font-family="sans-serif" font-size="12" font-weight="bold" lengthAdjust="spacing" textLength="106" x="938.375" y="329.9283">ExecutionContext</text><rect fill="#F1F1F1" height="36.3441" rx="12.5" ry="12.5" style="stroke:#181818;stroke-width:0.5;" width="296" x="791.375" y="427.9353"/><text fill="#000000" font-family="sans-serif" font-size="12" lengthAdjust="spacing" textLength="97" x="801.375" y="450.7634">UseCase executa</text><text fill="#000000" font-family="sans-serif" font-size="12" font-weight="bold" lengthAdjust="spacing" textLength="81" x="901.375" y="450.7634">EnrichService</text><text fill="#000000" font-family="sans-serif" font-size="12" lengthAdjust="spacing" textLength="92" x="985.375" y="450.7634">(Apenas buscas)</text><rect fill="#F1F1F1" height="36.3441" rx="12.5" ry="12.5" style="stroke:#181818;stroke-width:0.5;" width="225" x="826.875" y="499.2794"/><text fill="#000000" font-family="sans-serif" font-size="12" lengthAdjust="spacing" textLength="97" x="836.875" y="522.1075">UseCase registra</text><text fill="#000000" font-family="sans-serif" font-size="12" font-weight="bold" lengthAdjust="spacing" textLength="42" x="936.875" y="522.1075">Setters</text><text fill="#000000" font-family="sans-serif" font-size="12" lengthAdjust="spacing" textLength="60" x="981.875" y="522.1075">no Context</text><polygon fill="#F1F1F1" points="857.375,378.4444,1021.375,378.4444,1033.375,390.4444,1021.375,402.4444,857.375,402.4444,845.375,390.4444,857.375,378.4444" style="stroke:#181818;stroke-width:0.5;"/><text fill="#000000" font-family="sans-serif" font-size="11" lengthAdjust="spacing" textLength="19" x="943.375" y="414.2033">Sim</text><text fill="#000000" font-family="sans-serif" font-size="11" lengthAdjust="spacing" textLength="164" x="857.375" y="394.7123">Precisa enriquecer dados base?</text><polygon fill="#F1F1F1" points="939.375,555.6235,951.375,567.6235,939.375,579.6235,927.375,567.6235,939.375,555.6235" style="stroke:#181818;stroke-width:0.5;"/><rect fill="#F1F1F1" height="36.3441" rx="12.5" ry="12.5" style="stroke:#181818;stroke-width:0.5;" width="377" x="750.875" y="649.1145"/><text fill="#000000" font-family="sans-serif" font-size="12" lengthAdjust="spacing" textLength="97" x="760.875" y="671.9426">UseCase executa</text><text fill="#000000" font-family="sans-serif" font-size="12" font-weight="bold" lengthAdjust="spacing" textLength="93" x="860.875" y="671.9426">ValidateService</text><text fill="#000000" font-family="sans-serif" font-size="12" lengthAdjust="spacing" textLength="161" x="956.875" y="671.9426">(Recebe dados enriquecidos)</text><rect fill="#F1F1F1" height="36.3441" rx="12.5" ry="12.5" style="stroke:#181818;stroke-width:0.5;" width="319" x="779.875" y="720.4586"/><text fill="#000000" font-family="sans-serif" font-size="12" lengthAdjust="spacing" textLength="127" x="789.875" y="743.2867">ValidateService popula</text><text fill="#000000" font-family="sans-serif" font-size="12" font-weight="bold" lengthAdjust="spacing" textLength="109" x="919.875" y="743.2867">ValidationContext</text><text fill="#000000" font-family="sans-serif" font-size="12" lengthAdjust="spacing" textLength="57" x="1031.875" y="743.2867">com Erros</text><polygon fill="#F1F1F1" points="862.875,599.6235,1015.875,599.6235,1027.875,611.6235,1015.875,623.6235,862.875,623.6235,850.875,611.6235,862.875,599.6235" style="stroke:#181818;stroke-width:0.5;"/><text fill="#000000" font-family="sans-serif" font-size="11" lengthAdjust="spacing" textLength="19" x="943.375" y="635.3825">Sim</text><text fill="#000000" font-family="sans-serif" font-size="11" lengthAdjust="spacing" textLength="153" x="862.875" y="615.8915">Existem Regras de Valida&#231;&#227;o?</text><polygon fill="#F1F1F1" points="939.375,776.8027,951.375,788.8027,939.375,800.8027,927.375,788.8027,939.375,776.8027" style="stroke:#181818;stroke-width:0.5;"/><polygon fill="#F1F1F1" points="855.875,820.8027,1022.875,820.8027,1034.875,832.8027,1022.875,844.8027,855.875,844.8027,843.875,832.8027,855.875,820.8027" style="stroke:#181818;stroke-width:0.5;"/><text fill="#000000" font-family="sans-serif" font-size="11" lengthAdjust="spacing" textLength="167" x="855.875" y="837.0707">ValidationContext possui Erros?</text><text fill="#000000" font-family="sans-serif" font-size="11" lengthAdjust="spacing" textLength="19" x="824.875" y="829.5797">Sim</text><text fill="#000000" font-family="sans-serif" font-size="11" lengthAdjust="spacing" textLength="21" x="1034.875" y="829.5797">N&#227;o</text><rect fill="#F1F1F1" height="36.3441" rx="12.5" ry="12.5" style="stroke:#181818;stroke-width:0.5;" width="131" x="652" y="854.8027"/><text fill="#000000" font-family="sans-serif" font-size="12" lengthAdjust="spacing" textLength="111" x="662" y="877.6308">Interrompe pipeline</text><rect fill="none" height="151.412" style="stroke:#000000;stroke-width:1.5;" width="701" x="803" y="854.8027"/><path d="M938,854.8027 L938,866.8706 L928,876.8706 L803,876.8706 " fill="none" style="stroke:#000000;stroke-width:1.5;"/><text fill="#000000" font-family="sans-serif" font-size="14" lengthAdjust="spacing" textLength="125" x="806" y="870.7687">Execu&#231;&#227;o Principal</text><polygon fill="#F1F1F1" points="1086.25,893.8706,1236.25,893.8706,1248.25,905.8706,1236.25,917.8706,1086.25,917.8706,1074.25,905.8706,1086.25,893.8706" style="stroke:#181818;stroke-width:0.5;"/><text fill="#000000" font-family="sans-serif" font-size="11" lengthAdjust="spacing" textLength="150" x="1086.25" y="910.1386">L&#243;gica &#233; Interna ou Externa?</text><text fill="#000000" font-family="sans-serif" font-size="11" lengthAdjust="spacing" textLength="39" x="1035.25" y="902.6477">Interna</text><text fill="#000000" font-family="sans-serif" font-size="11" lengthAdjust="spacing" textLength="40" x="1248.25" y="902.6477">Externa</text><rect fill="#F1F1F1" height="36.3441" rx="12.5" ry="12.5" style="stroke:#181818;stroke-width:0.5;" width="332" x="823" y="927.8706"/><text fill="#000000" font-family="sans-serif" font-size="12" lengthAdjust="spacing" textLength="97" x="833" y="950.6987">UseCase executa</text><text fill="#000000" font-family="sans-serif" font-size="12" font-weight="bold" lengthAdjust="spacing" textLength="96" x="933" y="950.6987">BusinessService</text><text fill="#000000" font-family="sans-serif" font-size="12" lengthAdjust="spacing" textLength="113" x="1032" y="950.6987">(Regra de Neg&#243;cios)</text><rect fill="#F1F1F1" height="36.3441" rx="12.5" ry="12.5" style="stroke:#181818;stroke-width:0.5;" width="317" x="1175" y="927.8706"/><text fill="#000000" font-family="sans-serif" font-size="12" lengthAdjust="spacing" textLength="97" x="1185" y="950.6987">UseCase executa</text><text fill="#000000" font-family="sans-serif" font-size="12" font-weight="bold" lengthAdjust="spacing" textLength="79" x="1285" y="950.6987">ClientService</text><text fill="#000000" font-family="sans-serif" font-size="12" lengthAdjust="spacing" textLength="115" x="1367" y="950.6987">(Integra&#231;&#227;o Externa)</text><polygon fill="#F1F1F1" points="1161.25,970.2148,1173.25,982.2148,1161.25,994.2148,1149.25,982.2148,1161.25,970.2148" style="stroke:#181818;stroke-width:0.5;"/><rect fill="none" height="287.0151" style="stroke:#000000;stroke-width:1.5;" width="650" x="830.5" y="1016.2148"/><path d="M956.5,1016.2148 L956.5,1028.2827 L946.5,1038.2827 L830.5,1038.2827 " fill="none" style="stroke:#000000;stroke-width:1.5;"/><text fill="#000000" font-family="sans-serif" font-size="14" lengthAdjust="spacing" textLength="116" x="833.5" y="1032.1807">Efeitos Colaterais</text><polygon fill="#F1F1F1" points="1124.75,1112.5416,1197.75,1112.5416,1209.75,1124.5416,1197.75,1136.5416,1124.75,1136.5416,1112.75,1124.5416,1124.75,1112.5416" style="stroke:#181818;stroke-width:0.5;"/><text fill="#000000" font-family="sans-serif" font-size="11" lengthAdjust="spacing" textLength="73" x="1124.75" y="1128.8095">Tipo do Efeito</text><text fill="#000000" font-family="sans-serif" font-size="11" lengthAdjust="spacing" textLength="40" x="1072.75" y="1121.3186">Interno</text><text fill="#000000" font-family="sans-serif" font-size="11" lengthAdjust="spacing" textLength="41" x="1209.75" y="1121.3186">Externo</text><rect fill="#F1F1F1" height="36.3441" rx="12.5" ry="12.5" style="stroke:#181818;stroke-width:0.5;" width="281" x="874.5" y="1146.5416"/><text fill="#000000" font-family="sans-serif" font-size="12" lengthAdjust="spacing" textLength="97" x="884.5" y="1169.3697">UseCase executa</text><text fill="#000000" font-family="sans-serif" font-size="12" font-weight="bold" lengthAdjust="spacing" textLength="96" x="984.5" y="1169.3697">BusinessService</text><text fill="#000000" font-family="sans-serif" font-size="12" lengthAdjust="spacing" textLength="62" x="1083.5" y="1169.3697">secund&#225;rio</text><rect fill="#F1F1F1" height="36.3441" rx="12.5" ry="12.5" style="stroke:#181818;stroke-width:0.5;" width="264" x="1175.5" y="1146.5416"/><text fill="#000000" font-family="sans-serif" font-size="12" lengthAdjust="spacing" textLength="97" x="1185.5" y="1169.3697">UseCase executa</text><text fill="#000000" font-family="sans-serif" font-size="12" font-weight="bold" lengthAdjust="spacing" textLength="79" x="1285.5" y="1169.3697">ClientService</text><text fill="#000000" font-family="sans-serif" font-size="12" lengthAdjust="spacing" textLength="62" x="1367.5" y="1169.3697">secund&#225;rio</text><polygon fill="#F1F1F1" points="1161.25,1188.8857,1173.25,1200.8857,1161.25,1212.8857,1149.25,1200.8857,1161.25,1188.8857" style="stroke:#181818;stroke-width:0.5;"/><rect fill="#F1F1F1" height="36.3441" rx="12.5" ry="12.5" style="stroke:#181818;stroke-width:0.5;" width="224" x="1049.25" y="1232.8857"/><text fill="#000000" font-family="sans-serif" font-size="12" lengthAdjust="spacing" textLength="97" x="1059.25" y="1255.7138">UseCase registra</text><text fill="#000000" font-family="sans-serif" font-size="12" font-weight="bold" lengthAdjust="spacing" textLength="41" x="1159.25" y="1255.7138">Effects</text><text fill="#000000" font-family="sans-serif" font-size="12" lengthAdjust="spacing" textLength="60" x="1203.25" y="1255.7138">no Context</text><polygon fill="#F1F1F1" points="1092.25,1055.2827,1230.25,1055.2827,1242.25,1067.2827,1230.25,1079.2827,1092.25,1079.2827,1080.25,1067.2827,1092.25,1055.2827" style="stroke:#181818;stroke-width:0.5;"/><text fill="#000000" font-family="sans-serif" font-size="11" lengthAdjust="spacing" textLength="19" x="1165.25" y="1091.0416">Sim</text><text fill="#000000" font-family="sans-serif" font-size="11" lengthAdjust="spacing" textLength="138" x="1092.25" y="1071.5506">Existem Efeitos Colaterais?</text><text fill="#000000" font-family="sans-serif" font-size="11" lengthAdjust="spacing" textLength="21" x="1059.25" y="1064.0597">N&#227;o</text><polygon fill="#F1F1F1" points="939.375,1309.2298,951.375,1321.2298,939.375,1333.2298,927.375,1321.2298,939.375,1309.2298" style="stroke:#181818;stroke-width:0.5;"/><rect fill="#F1F1F1" height="36.3441" rx="12.5" ry="12.5" style="stroke:#181818;stroke-width:0.5;" width="224" x="827.375" y="1365.2298"/><text fill="#000000" font-family="sans-serif" font-size="12" lengthAdjust="spacing" textLength="95" x="837.375" y="1388.0579">UseCase retorna</text><text fill="#000000" font-family="sans-serif" font-size="12" font-weight="bold" lengthAdjust="spacing" textLength="106" x="935.375" y="1388.0579">ExecutionContext</text><polygon fill="#F1F1F1" points="625.0625,1407.5739,637.0625,1419.5739,625.0625,1431.5739,613.0625,1419.5739,625.0625,1407.5739" style="stroke:#181818;stroke-width:0.5;"/><rect fill="#F1F1F1" height="36.3441" rx="12.5" ry="12.5" style="stroke:#181818;stroke-width:0.5;" width="334" x="458.0625" y="1451.5739"/><text fill="#000000" font-family="sans-serif" font-size="12" lengthAdjust="spacing" textLength="172" x="468.0625" y="1474.402">ResponseService formata para</text><text fill="#000000" font-family="sans-serif" font-size="12" font-weight="bold" lengthAdjust="spacing" textLength="139" x="643.0625" y="1474.402">Unified JSON Response</text><rect fill="#F1F1F1" height="36.3441" rx="12.5" ry="12.5" style="stroke:#181818;stroke-width:0.5;" width="218" x="516.0625" y="1507.918"/><text fill="#000000" font-family="sans-serif" font-size="12" lengthAdjust="spacing" textLength="198" x="526.0625" y="1530.7461">Controller envia Response ao Client</text><ellipse cx="625.0625" cy="1575.2622" fill="none" rx="11" ry="11" style="stroke:#222222;stroke-width:1.0;"/><ellipse cx="625.0625" cy="1575.2622" fill="#222222" rx="6" ry="6" style="stroke:#222222;stroke-width:1.0;"/><line style="stroke:#181818;stroke-width:1.0;" x1="625.0625" x2="625.0625" y1="30" y2="50"/><polygon fill="#181818" points="621.0625,40,625.0625,50,629.0625,40,625.0625,44" style="stroke:#181818;stroke-width:1.0;"/><line style="stroke:#181818;stroke-width:1.0;" x1="625.0625" x2="625.0625" y1="86.3441" y2="106.3441"/><polygon fill="#181818" points="621.0625,96.3441,625.0625,106.3441,629.0625,96.3441,625.0625,100.3441" style="stroke:#181818;stroke-width:1.0;"/><line style="stroke:#181818;stroke-width:1.0;" x1="223.75" x2="158" y1="208.6882" y2="208.6882"/><line style="stroke:#181818;stroke-width:1.0;" x1="158" x2="158" y1="208.6882" y2="230.6882"/><polygon fill="#181818" points="154,220.6882,158,230.6882,162,220.6882,158,224.6882" style="stroke:#181818;stroke-width:1.0;"/><line style="stroke:#181818;stroke-width:1.0;" x1="397.75" x2="463.5" y1="208.6882" y2="208.6882"/><line style="stroke:#181818;stroke-width:1.0;" x1="463.5" x2="463.5" y1="208.6882" y2="230.6882"/><polygon fill="#181818" points="459.5,220.6882,463.5,230.6882,467.5,220.6882,463.5,224.6882" style="stroke:#181818;stroke-width:1.0;"/><line style="stroke:#181818;stroke-width:1.0;" x1="158" x2="158" y1="267.0323" y2="285.0323"/><line style="stroke:#181818;stroke-width:1.0;" x1="158" x2="298.75" y1="285.0323" y2="285.0323"/><polygon fill="#181818" points="288.75,281.0323,298.75,285.0323,288.75,289.0323,292.75,285.0323" style="stroke:#181818;stroke-width:1.0;"/><line style="stroke:#181818;stroke-width:1.0;" x1="463.5" x2="463.5" y1="267.0323" y2="285.0323"/><line style="stroke:#181818;stroke-width:1.0;" x1="463.5" x2="322.75" y1="285.0323" y2="285.0323"/><polygon fill="#181818" points="332.75,281.0323,322.75,285.0323,332.75,289.0323,328.75,285.0323" style="stroke:#181818;stroke-width:1.0;"/><line style="stroke:#181818;stroke-width:1.0;" x1="310.75" x2="310.75" y1="297.0323" y2="332.0323"/><polygon fill="#181818" points="306.75,322.0323,310.75,332.0323,314.75,322.0323,310.75,326.0323" style="stroke:#181818;stroke-width:1.0;"/><line style="stroke:#181818;stroke-width:1.0;" x1="939.375" x2="939.375" y1="464.2794" y2="499.2794"/><polygon fill="#181818" points="935.375,489.2794,939.375,499.2794,943.375,489.2794,939.375,493.2794" style="stroke:#181818;stroke-width:1.0;"/><line style="stroke:#181818;stroke-width:1.0;" x1="939.375" x2="939.375" y1="402.4444" y2="427.9353"/><polygon fill="#181818" points="935.375,417.9353,939.375,427.9353,943.375,417.9353,939.375,421.9353" style="stroke:#181818;stroke-width:1.0;"/><line style="stroke:#181818;stroke-width:1.0;" x1="1033.375" x2="1097.375" y1="390.4444" y2="390.4444"/><polygon fill="#181818" points="1093.375,471.7794,1097.375,481.7794,1101.375,471.7794,1097.375,475.7794" style="stroke:#181818;stroke-width:1.0;"/><line style="stroke:#181818;stroke-width:1.0;" x1="1097.375" x2="1097.375" y1="390.4444" y2="567.6235"/><line style="stroke:#181818;stroke-width:1.0;" x1="1097.375" x2="951.375" y1="567.6235" y2="567.6235"/><polygon fill="#181818" points="961.375,563.6235,951.375,567.6235,961.375,571.6235,957.375,567.6235" style="stroke:#181818;stroke-width:1.0;"/><line style="stroke:#181818;stroke-width:1.0;" x1="939.375" x2="939.375" y1="535.6235" y2="555.6235"/><polygon fill="#181818" points="935.375,545.6235,939.375,555.6235,943.375,545.6235,939.375,549.6235" style="stroke:#181818;stroke-width:1.0;"/><line style="stroke:#181818;stroke-width:1.0;" x1="939.375" x2="939.375" y1="343.4444" y2="378.4444"/><polygon fill="#181818" points="935.375,368.4444,939.375,378.4444,943.375,368.4444,939.375,372.4444" style="stroke:#181818;stroke-width:1.0;"/><line style="stroke:#181818;stroke-width:1.0;" x1="939.375" x2="939.375" y1="685.4586" y2="720.4586"/><polygon fill="#181818" points="935.375,710.4586,939.375,720.4586,943.375,710.4586,939.375,714.4586" style="stroke:#181818;stroke-width:1.0;"/><line style="stroke:#181818;stroke-width:1.0;" x1="939.375" x2="939.375" y1="623.6235" y2="649.1145"/><polygon fill="#181818" points="935.375,639.1145,939.375,649.1145,943.375,639.1145,939.375,643.1145" style="stroke:#181818;stroke-width:1.0;"/><line style="stroke:#181818;stroke-width:1.0;" x1="1027.875" x2="1137.875" y1="611.6235" y2="611.6235"/><polygon fill="#181818" points="1133.875,692.9586,1137.875,702.9586,1141.875,692.9586,1137.875,696.9586" style="stroke:#181818;stroke-width:1.0;"/><line style="stroke:#181818;stroke-width:1.0;" x1="1137.875" x2="1137.875" y1="611.6235" y2="788.8027"/><line style="stroke:#181818;stroke-width:1.0;" x1="1137.875" x2="951.375" y1="788.8027" y2="788.8027"/><polygon fill="#181818" points="961.375,784.8027,951.375,788.8027,961.375,792.8027,957.375,788.8027" style="stroke:#181818;stroke-width:1.0;"/><line style="stroke:#181818;stroke-width:1.0;" x1="939.375" x2="939.375" y1="756.8027" y2="776.8027"/><polygon fill="#181818" points="935.375,766.8027,939.375,776.8027,943.375,766.8027,939.375,770.8027" style="stroke:#181818;stroke-width:1.0;"/><line style="stroke:#181818;stroke-width:1.0;" x1="939.375" x2="939.375" y1="579.6235" y2="599.6235"/><polygon fill="#181818" points="935.375,589.6235,939.375,599.6235,943.375,589.6235,939.375,593.6235" style="stroke:#181818;stroke-width:1.0;"/><line style="stroke:#181818;stroke-width:1.0;" x1="1074.25" x2="989" y1="905.8706" y2="905.8706"/><line style="stroke:#181818;stroke-width:1.0;" x1="989" x2="989" y1="905.8706" y2="927.8706"/><polygon fill="#181818" points="985,917.8706,989,927.8706,993,917.8706,989,921.8706" style="stroke:#181818;stroke-width:1.0;"/><line style="stroke:#181818;stroke-width:1.0;" x1="1248.25" x2="1333.5" y1="905.8706" y2="905.8706"/><line style="stroke:#181818;stroke-width:1.0;" x1="1333.5" x2="1333.5" y1="905.8706" y2="927.8706"/><polygon fill="#181818" points="1329.5,917.8706,1333.5,927.8706,1337.5,917.8706,1333.5,921.8706" style="stroke:#181818;stroke-width:1.0;"/><line style="stroke:#181818;stroke-width:1.0;" x1="989" x2="989" y1="964.2148" y2="982.2148"/><line style="stroke:#181818;stroke-width:1.0;" x1="989" x2="1149.25" y1="982.2148" y2="982.2148"/><polygon fill="#181818" points="1139.25,978.2148,1149.25,982.2148,1139.25,986.2148,1143.25,982.2148" style="stroke:#181818;stroke-width:1.0;"/><line style="stroke:#181818;stroke-width:1.0;" x1="1333.5" x2="1333.5" y1="964.2148" y2="982.2148"/><line style="stroke:#181818;stroke-width:1.0;" x1="1333.5" x2="1173.25" y1="982.2148" y2="982.2148"/><polygon fill="#181818" points="1183.25,978.2148,1173.25,982.2148,1183.25,986.2148,1179.25,982.2148" style="stroke:#181818;stroke-width:1.0;"/><line style="stroke:#181818;stroke-width:1.0;" x1="1112.75" x2="1015" y1="1124.5416" y2="1124.5416"/><line style="stroke:#181818;stroke-width:1.0;" x1="1015" x2="1015" y1="1124.5416" y2="1146.5416"/><polygon fill="#181818" points="1011,1136.5416,1015,1146.5416,1019,1136.5416,1015,1140.5416" style="stroke:#181818;stroke-width:1.0;"/><line style="stroke:#181818;stroke-width:1.0;" x1="1209.75" x2="1307.5" y1="1124.5416" y2="1124.5416"/><line style="stroke:#181818;stroke-width:1.0;" x1="1307.5" x2="1307.5" y1="1124.5416" y2="1146.5416"/><polygon fill="#181818" points="1303.5,1136.5416,1307.5,1146.5416,1311.5,1136.5416,1307.5,1140.5416" style="stroke:#181818;stroke-width:1.0;"/><line style="stroke:#181818;stroke-width:1.0;" x1="1015" x2="1015" y1="1182.8857" y2="1200.8857"/><line style="stroke:#181818;stroke-width:1.0;" x1="1015" x2="1149.25" y1="1200.8857" y2="1200.8857"/><polygon fill="#181818" points="1139.25,1196.8857,1149.25,1200.8857,1139.25,1204.8857,1143.25,1200.8857" style="stroke:#181818;stroke-width:1.0;"/><line style="stroke:#181818;stroke-width:1.0;" x1="1307.5" x2="1307.5" y1="1182.8857" y2="1200.8857"/><line style="stroke:#181818;stroke-width:1.0;" x1="1307.5" x2="1173.25" y1="1200.8857" y2="1200.8857"/><polygon fill="#181818" points="1183.25,1196.8857,1173.25,1200.8857,1183.25,1204.8857,1179.25,1200.8857" style="stroke:#181818;stroke-width:1.0;"/><line style="stroke:#181818;stroke-width:1.0;" x1="1161.25" x2="1161.25" y1="1212.8857" y2="1232.8857"/><polygon fill="#181818" points="1157.25,1222.8857,1161.25,1232.8857,1165.25,1222.8857,1161.25,1226.8857" style="stroke:#181818;stroke-width:1.0;"/><line style="stroke:#181818;stroke-width:1.0;" x1="1161.25" x2="1161.25" y1="1079.2827" y2="1112.5416"/><polygon fill="#181818" points="1157.25,1102.5416,1161.25,1112.5416,1165.25,1102.5416,1161.25,1106.5416" style="stroke:#181818;stroke-width:1.0;"/><line style="stroke:#181818;stroke-width:1.0;" x1="1161.25" x2="1161.25" y1="1269.2298" y2="1279.2298"/><line style="stroke:#181818;stroke-width:1.0;" x1="1161.25" x2="1461.5" y1="1279.2298" y2="1279.2298"/><polygon fill="#181818" points="1457.5,1188.8947,1461.5,1178.8947,1465.5,1188.8947,1461.5,1184.8947" style="stroke:#181818;stroke-width:1.0;"/><line style="stroke:#181818;stroke-width:1.0;" x1="1461.5" x2="1461.5" y1="1067.2827" y2="1279.2298"/><line style="stroke:#181818;stroke-width:1.0;" x1="1461.5" x2="1242.25" y1="1067.2827" y2="1067.2827"/><polygon fill="#181818" points="1252.25,1063.2827,1242.25,1067.2827,1252.25,1071.2827,1248.25,1067.2827" style="stroke:#181818;stroke-width:1.0;"/><line style="stroke:#181818;stroke-width:1.0;" x1="1080.25" x2="852.5" y1="1067.2827" y2="1067.2827"/><polygon fill="#181818" points="848.5,1174.8947,852.5,1184.8947,856.5,1174.8947,852.5,1178.8947" style="stroke:#181818;stroke-width:1.0;"/><line style="stroke:#181818;stroke-width:1.0;" x1="852.5" x2="852.5" y1="1067.2827" y2="1291.2298"/><line style="stroke:#181818;stroke-width:1.0;" x1="852.5" x2="1161.25" y1="1291.2298" y2="1291.2298"/><line style="stroke:#181818;stroke-width:1.0;" x1="1161.25" x2="1161.25" y1="1291.2298" y2="1321.2298"/><line style="stroke:#181818;stroke-width:1.0;" x1="1161.25" x2="951.375" y1="1321.2298" y2="1321.2298"/><polygon fill="#181818" points="961.375,1317.2298,951.375,1321.2298,961.375,1325.2298,957.375,1321.2298" style="stroke:#181818;stroke-width:1.0;"/><line style="stroke:#181818;stroke-width:1.0;" x1="1161.25" x2="1161.25" y1="994.2148" y2="1055.2827"/><polygon fill="#181818" points="1157.25,1045.2827,1161.25,1055.2827,1165.25,1045.2827,1161.25,1049.2827" style="stroke:#181818;stroke-width:1.0;"/><line style="stroke:#181818;stroke-width:1.0;" x1="843.875" x2="717.5" y1="832.8027" y2="832.8027"/><line style="stroke:#181818;stroke-width:1.0;" x1="717.5" x2="717.5" y1="832.8027" y2="854.8027"/><polygon fill="#181818" points="713.5,844.8027,717.5,854.8027,721.5,844.8027,717.5,848.8027" style="stroke:#181818;stroke-width:1.0;"/><line style="stroke:#181818;stroke-width:1.0;" x1="1034.875" x2="1161.25" y1="832.8027" y2="832.8027"/><line style="stroke:#181818;stroke-width:1.0;" x1="1161.25" x2="1161.25" y1="832.8027" y2="893.8706"/><polygon fill="#181818" points="1157.25,883.8706,1161.25,893.8706,1165.25,883.8706,1161.25,887.8706" style="stroke:#181818;stroke-width:1.0;"/><line style="stroke:#181818;stroke-width:1.0;" x1="717.5" x2="717.5" y1="891.1468" y2="1321.2298"/><line style="stroke:#181818;stroke-width:1.0;" x1="717.5" x2="927.375" y1="1321.2298" y2="1321.2298"/><polygon fill="#181818" points="917.375,1317.2298,927.375,1321.2298,917.375,1325.2298,921.375,1321.2298" style="stroke:#181818;stroke-width:1.0;"/><line style="stroke:#181818;stroke-width:1.0;" x1="939.375" x2="939.375" y1="800.8027" y2="820.8027"/><polygon fill="#181818" points="935.375,810.8027,939.375,820.8027,943.375,810.8027,939.375,814.8027" style="stroke:#181818;stroke-width:1.0;"/><line style="stroke:#181818;stroke-width:1.0;" x1="939.375" x2="939.375" y1="233.0323" y2="307.1003"/><polygon fill="#181818" points="935.375,297.1003,939.375,307.1003,943.375,297.1003,939.375,301.1003" style="stroke:#181818;stroke-width:1.0;"/><line style="stroke:#181818;stroke-width:1.0;" x1="939.375" x2="939.375" y1="1333.2298" y2="1365.2298"/><polygon fill="#181818" points="935.375,1355.2298,939.375,1365.2298,943.375,1355.2298,939.375,1359.2298" style="stroke:#181818;stroke-width:1.0;"/><line style="stroke:#181818;stroke-width:1.0;" x1="503.0625" x2="310.75" y1="174.6882" y2="174.6882"/><line style="stroke:#181818;stroke-width:1.0;" x1="310.75" x2="310.75" y1="174.6882" y2="196.6882"/><polygon fill="#181818" points="306.75,186.6882,310.75,196.6882,314.75,186.6882,310.75,190.6882" style="stroke:#181818;stroke-width:1.0;"/><line style="stroke:#181818;stroke-width:1.0;" x1="747.0625" x2="939.375" y1="174.6882" y2="174.6882"/><line style="stroke:#181818;stroke-width:1.0;" x1="939.375" x2="939.375" y1="174.6882" y2="196.6882"/><polygon fill="#181818" points="935.375,186.6882,939.375,196.6882,943.375,186.6882,939.375,190.6882" style="stroke:#181818;stroke-width:1.0;"/><line style="stroke:#181818;stroke-width:1.0;" x1="310.75" x2="310.75" y1="368.3765" y2="1419.5739"/><line style="stroke:#181818;stroke-width:1.0;" x1="310.75" x2="613.0625" y1="1419.5739" y2="1419.5739"/><polygon fill="#181818" points="603.0625,1415.5739,613.0625,1419.5739,603.0625,1423.5739,607.0625,1419.5739" style="stroke:#181818;stroke-width:1.0;"/><line style="stroke:#181818;stroke-width:1.0;" x1="939.375" x2="939.375" y1="1401.5739" y2="1419.5739"/><line style="stroke:#181818;stroke-width:1.0;" x1="939.375" x2="637.0625" y1="1419.5739" y2="1419.5739"/><polygon fill="#181818" points="647.0625,1415.5739,637.0625,1419.5739,647.0625,1423.5739,643.0625,1419.5739" style="stroke:#181818;stroke-width:1.0;"/><line style="stroke:#181818;stroke-width:1.0;" x1="625.0625" x2="625.0625" y1="142.6882" y2="162.6882"/><polygon fill="#181818" points="621.0625,152.6882,625.0625,162.6882,629.0625,152.6882,625.0625,156.6882" style="stroke:#181818;stroke-width:1.0;"/><line style="stroke:#181818;stroke-width:1.0;" x1="625.0625" x2="625.0625" y1="1431.5739" y2="1451.5739"/><polygon fill="#181818" points="621.0625,1441.5739,625.0625,1451.5739,629.0625,1441.5739,625.0625,1445.5739" style="stroke:#181818;stroke-width:1.0;"/><line style="stroke:#181818;stroke-width:1.0;" x1="625.0625" x2="625.0625" y1="1487.918" y2="1507.918"/><polygon fill="#181818" points="621.0625,1497.918,625.0625,1507.918,629.0625,1497.918,625.0625,1501.918" style="stroke:#181818;stroke-width:1.0;"/><line style="stroke:#181818;stroke-width:1.0;" x1="625.0625" x2="625.0625" y1="1544.2622" y2="1564.2622"/><polygon fill="#181818" points="621.0625,1554.2622,625.0625,1564.2622,629.0625,1554.2622,625.0625,1558.2622" style="stroke:#181818;stroke-width:1.0;"/><!--SRC=[ZLJ1RXen4BtlLuno0gGgTpXK3I5IgueYQ7ftTcTX9A-zjRq9IfKFw6TKFKGzvzRh_bZ7krumiAJX05YUzsRUcnbR9unBnbD9g1pauX6M-Br2woR9UAahXmOkOQgLCrfAFXXCyGxtGGdbC6XE1ehwhtHKIct1ehcd-fd_NO8sJQmHzNFzMxyVWjkWWi6S3_0ELbIK4k56weTX0k3fwf_mkNvPKohWe-8Ab01TmMpR_DtXmvK70OoZ4d6BQUK4Z4PNbIM5rgvyDIcEHf2HGISAreeJ1gAq28F0_1fJwyzv7fLHph_ZLT3DFZdj2yz4nYRScSffEqdQV2oPXK-r5xxTAOyJYvIqLysPRorEXUMSx3L0oTqYnvTmSRMylePm2migKRBM2_ZHgkWkI55AGjAZLp5hz33QfyAjywG-kldopY-ulMG5wp74JKkvb220kNRES_sjLr6UlLKpngQRlLM33oKgmHILJOKTJewH1jVafuEXAtJS2SiWfI7KsCQt1k_gd6qPWWMFuTemTORmZJLcHnFsUfqjmc5KwR8TxbPovm7nOL_r4GfANLOoeelDXLGNC3F6Txv7n0c2oQojg8NqgcXctl3WSEBGyK3T39PVgIuscfIcxOqri32aKYg5x0QbAwPRkFhFctVkhBEdQpTe6kNxDCTr_SBJlRUqTmlFSXylObFIEhmjNRqnTzXC_tbAUhp9aNWrUTeaTzK8ih4p3nkIk1-tqs1sXkn1Zpf3lrAf8TC1SsYWZeFVQA7bAvNLlmpfIOIElVi_xR5xvqWZqyxjwYpFCNLzkneOWdVnJ3ubCRi_HSpjUzd_I8ND6I_HbbhPtVRbsXI2bN53FVHMKKwOmQVLbpbqiHv_yAYhUnAxMn1SVUCAlw_MwJBv1m00]--></g></svg>