<?xml version="1.0" encoding="us-ascii" standalone="no"?><svg xmlns="http://www.w3.org/2000/svg" xmlns:xlink="http://www.w3.org/1999/xlink" contentStyleType="text/css" height="1467px" preserveAspectRatio="none" style="width:1269px;height:1467px;background:#FFFFFF;" version="1.1" viewBox="0 0 1269 1467" width="1269px" zoomAndPan="magnify"><defs/><g><rect fill="#FFFFFF" height="1248.326" style="stroke:#181818;stroke-width:1.0;" width="10" x="144.5" y="117.7739"/><rect fill="#FFFFFF" height="829.8901" style="stroke:#181818;stroke-width:1.0;" width="10" x="313.5" y="434.0919"/><rect fill="#FFFFFF" height="31.706" style="stroke:#181818;stroke-width:1.0;" width="10" x="505.5" y="492.5039"/><rect fill="#FFFFFF" height="31.706" style="stroke:#181818;stroke-width:1.0;" width="10" x="626" y="589.6219"/><rect fill="#FFFFFF" height="31.706" style="stroke:#181818;stroke-width:1.0;" width="10" x="755" y="202.892"/><rect fill="#FFFFFF" height="31.706" style="stroke:#181818;stroke-width:1.0;" width="10" x="755" y="713.446"/><rect fill="#FFFFFF" height="31.706" style="stroke:#181818;stroke-width:1.0;" width="10" x="755" y="981.076"/><rect fill="#FFFFFF" height="95.118" style="stroke:#181818;stroke-width:1.0;" width="10" x="876.5" y="283.2859"/><rect fill="#FFFFFF" height="95.118" style="stroke:#181818;stroke-width:1.0;" width="10" x="876.5" y="793.8399"/><rect fill="#FFFFFF" height="95.118" style="stroke:#181818;stroke-width:1.0;" width="10" x="876.5" y="1061.4699"/><rect fill="#FFFFFF" height="31.706" style="stroke:#181818;stroke-width:1.0;" width="10" x="1058.5" y="314.9919"/><rect fill="#FFFFFF" height="31.706" style="stroke:#181818;stroke-width:1.0;" width="10" x="1058.5" y="825.5459"/><rect fill="#FFFFFF" height="31.706" style="stroke:#181818;stroke-width:1.0;" width="10" x="1058.5" y="1093.176"/><rect fill="#FFFFFF" height="31.706" style="stroke:#181818;stroke-width:1.0;" width="10" x="1194.5" y="1302.6879"/><rect fill="none" height="1139.208" style="stroke:#000000;stroke-width:1.5;" width="1102" x="64" y="132.7739"/><rect fill="none" height="226.924" style="stroke:#000000;stroke-width:1.5;" width="1062" x="74" y="159.4799"/><rect fill="none" height="83.118" style="stroke:#000000;stroke-width:1.5;" width="300" x="273" y="449.0919"/><rect fill="none" height="83.118" style="stroke:#000000;stroke-width:1.5;" width="426" x="273" y="546.2099"/><rect fill="none" height="589.9479" style="stroke:#000000;stroke-width:1.5;" width="918" x="238" y="643.328"/><rect fill="none" height="226.924" style="stroke:#000000;stroke-width:1.5;" width="863" x="273" y="670.034"/><rect fill="none" height="260.63" style="stroke:#000000;stroke-width:1.5;" width="883" x="263" y="910.958"/><rect fill="none" height="226.924" style="stroke:#000000;stroke-width:1.5;" width="863" x="273" y="937.664"/><line style="stroke:#181818;stroke-width:0.5;stroke-dasharray:5.0,5.0;" x1="27" x2="27" y1="84.0679" y2="1384.1"/><line style="stroke:#181818;stroke-width:0.5;stroke-dasharray:5.0,5.0;" x1="149" x2="149" y1="84.0679" y2="1384.1"/><line style="stroke:#181818;stroke-width:0.5;stroke-dasharray:5.0,5.0;" x1="318" x2="318" y1="84.0679" y2="1384.1"/><line style="stroke:#181818;stroke-width:0.5;stroke-dasharray:5.0,5.0;" x1="510" x2="510" y1="84.0679" y2="1384.1"/><line style="stroke:#181818;stroke-width:0.5;stroke-dasharray:5.0,5.0;" x1="631" x2="631" y1="84.0679" y2="1384.1"/><line style="stroke:#181818;stroke-width:0.5;stroke-dasharray:5.0,5.0;" x1="760" x2="760" y1="84.0679" y2="1384.1"/><line style="stroke:#181818;stroke-width:0.5;stroke-dasharray:5.0,5.0;" x1="881" x2="881" y1="84.0679" y2="1384.1"/><line style="stroke:#181818;stroke-width:0.5;stroke-dasharray:5.0,5.0;" x1="1063" x2="1063" y1="84.0679" y2="1384.1"/><line style="stroke:#181818;stroke-width:0.5;stroke-dasharray:5.0,5.0;" x1="1199" x2="1199" y1="84.0679" y2="1384.1"/><text fill="#000000" font-family="sans-serif" font-size="14" lengthAdjust="spacing" textLength="39" x="5" y="79.9659">Client</text><ellipse cx="27.5" cy="13.5" fill="#E2E2F0" rx="8" ry="8" style="stroke:#181818;stroke-width:0.5;"/><path d="M27.5,21.5 L27.5,48.5 M14.5,29.5 L40.5,29.5 M27.5,48.5 L14.5,63.5 M27.5,48.5 L40.5,63.5 " fill="none" style="stroke:#181818;stroke-width:0.5;"/><text fill="#000000" font-family="sans-serif" font-size="14" lengthAdjust="spacing" textLength="39" x="5" y="1398.0659">Client</text><ellipse cx="27.5" cy="1410.6679" fill="#E2E2F0" rx="8" ry="8" style="stroke:#181818;stroke-width:0.5;"/><path d="M27.5,1418.6679 L27.5,1445.6679 M14.5,1426.6679 L40.5,1426.6679 M27.5,1445.6679 L14.5,1460.6679 M27.5,1445.6679 L40.5,1460.6679 " fill="none" style="stroke:#181818;stroke-width:0.5;"/><rect fill="#E2E2F0" height="33.0679" rx="2.5" ry="2.5" style="stroke:#181818;stroke-width:0.5;" width="131" x="84" y="50"/><text fill="#000000" font-family="sans-serif" font-size="14" lengthAdjust="spacing" textLength="117" x="91" y="71.9659">Router/Controller</text><rect fill="#E2E2F0" height="33.0679" rx="2.5" ry="2.5" style="stroke:#181818;stroke-width:0.5;" width="131" x="84" y="1383.1"/><text fill="#000000" font-family="sans-serif" font-size="14" lengthAdjust="spacing" textLength="117" x="91" y="1405.0659">Router/Controller</text><rect fill="#E2E2F0" height="33.0679" rx="2.5" ry="2.5" style="stroke:#181818;stroke-width:0.5;" width="71" x="283" y="50"/><text fill="#000000" font-family="sans-serif" font-size="14" lengthAdjust="spacing" textLength="57" x="290" y="71.9659">UseCase</text><rect fill="#E2E2F0" height="33.0679" rx="2.5" ry="2.5" style="stroke:#181818;stroke-width:0.5;" width="71" x="283" y="1383.1"/><text fill="#000000" font-family="sans-serif" font-size="14" lengthAdjust="spacing" textLength="57" x="290" y="1405.0659">UseCase</text><rect fill="#E2E2F0" height="33.0679" rx="2.5" ry="2.5" style="stroke:#181818;stroke-width:0.5;" width="105" x="458" y="50"/><text fill="#000000" font-family="sans-serif" font-size="14" lengthAdjust="spacing" textLength="91" x="465" y="71.9659">EnrichService</text><rect fill="#E2E2F0" height="33.0679" rx="2.5" ry="2.5" style="stroke:#181818;stroke-width:0.5;" width="105" x="458" y="1383.1"/><text fill="#000000" font-family="sans-serif" font-size="14" lengthAdjust="spacing" textLength="91" x="465" y="1405.0659">EnrichService</text><rect fill="#E2E2F0" height="33.0679" rx="2.5" ry="2.5" style="stroke:#181818;stroke-width:0.5;" width="116" x="573" y="50"/><text fill="#000000" font-family="sans-serif" font-size="14" lengthAdjust="spacing" textLength="102" x="580" y="71.9659">ValidateService</text><rect fill="#E2E2F0" height="33.0679" rx="2.5" ry="2.5" style="stroke:#181818;stroke-width:0.5;" width="116" x="573" y="1383.1"/><text fill="#000000" font-family="sans-serif" font-size="14" lengthAdjust="spacing" textLength="102" x="580" y="1405.0659">ValidateService</text><rect fill="#E2E2F0" height="33.0679" rx="2.5" ry="2.5" style="stroke:#181818;stroke-width:0.5;" width="122" x="699" y="50"/><text fill="#000000" font-family="sans-serif" font-size="14" lengthAdjust="spacing" textLength="108" x="706" y="71.9659">BusinessService</text><rect fill="#E2E2F0" height="33.0679" rx="2.5" ry="2.5" style="stroke:#181818;stroke-width:0.5;" width="122" x="699" y="1383.1"/><text fill="#000000" font-family="sans-serif" font-size="14" lengthAdjust="spacing" textLength="108" x="706" y="1405.0659">BusinessService</text><rect fill="#E2E2F0" height="33.0679" rx="2.5" ry="2.5" style="stroke:#181818;stroke-width:0.5;" width="101" x="831" y="50"/><text fill="#000000" font-family="sans-serif" font-size="14" lengthAdjust="spacing" textLength="87" x="838" y="71.9659">ClientService</text><rect fill="#E2E2F0" height="33.0679" rx="2.5" ry="2.5" style="stroke:#181818;stroke-width:0.5;" width="101" x="831" y="1383.1"/><text fill="#000000" font-family="sans-serif" font-size="14" lengthAdjust="spacing" textLength="87" x="838" y="1405.0659">ClientService</text><rect fill="#E2E2F0" height="33.0679" rx="2.5" ry="2.5" style="stroke:#181818;stroke-width:0.5;" width="125" x="1001" y="50"/><text fill="#000000" font-family="sans-serif" font-size="14" lengthAdjust="spacing" textLength="111" x="1008" y="71.9659">External Domain</text><rect fill="#E2E2F0" height="33.0679" rx="2.5" ry="2.5" style="stroke:#181818;stroke-width:0.5;" width="125" x="1001" y="1383.1"/><text fill="#000000" font-family="sans-serif" font-size="14" lengthAdjust="spacing" textLength="111" x="1008" y="1405.0659">External Domain</text><rect fill="#E2E2F0" height="33.0679" rx="2.5" ry="2.5" style="stroke:#181818;stroke-width:0.5;" width="127" x="1136" y="50"/><text fill="#000000" font-family="sans-serif" font-size="14" lengthAdjust="spacing" textLength="113" x="1143" y="71.9659">ResponseService</text><rect fill="#E2E2F0" height="33.0679" rx="2.5" ry="2.5" style="stroke:#181818;stroke-width:0.5;" width="127" x="1136" y="1383.1"/><text fill="#000000" font-family="sans-serif" font-size="14" lengthAdjust="spacing" textLength="113" x="1143" y="1405.0659">ResponseService</text><rect fill="#FFFFFF" height="1248.326" style="stroke:#181818;stroke-width:1.0;" width="10" x="144.5" y="117.7739"/><rect fill="#FFFFFF" height="829.8901" style="stroke:#181818;stroke-width:1.0;" width="10" x="313.5" y="434.0919"/><rect fill="#FFFFFF" height="31.706" style="stroke:#181818;stroke-width:1.0;" width="10" x="505.5" y="492.5039"/><rect fill="#FFFFFF" height="31.706" style="stroke:#181818;stroke-width:1.0;" width="10" x="626" y="589.6219"/><rect fill="#FFFFFF" height="31.706" style="stroke:#181818;stroke-width:1.0;" width="10" x="755" y="202.892"/><rect fill="#FFFFFF" height="31.706" style="stroke:#181818;stroke-width:1.0;" width="10" x="755" y="713.446"/><rect fill="#FFFFFF" height="31.706" style="stroke:#181818;stroke-width:1.0;" width="10" x="755" y="981.076"/><rect fill="#FFFFFF" height="95.118" style="stroke:#181818;stroke-width:1.0;" width="10" x="876.5" y="283.2859"/><rect fill="#FFFFFF" height="95.118" style="stroke:#181818;stroke-width:1.0;" width="10" x="876.5" y="793.8399"/><rect fill="#FFFFFF" height="95.118" style="stroke:#181818;stroke-width:1.0;" width="10" x="876.5" y="1061.4699"/><rect fill="#FFFFFF" height="31.706" style="stroke:#181818;stroke-width:1.0;" width="10" x="1058.5" y="314.9919"/><rect fill="#FFFFFF" height="31.706" style="stroke:#181818;stroke-width:1.0;" width="10" x="1058.5" y="825.5459"/><rect fill="#FFFFFF" height="31.706" style="stroke:#181818;stroke-width:1.0;" width="10" x="1058.5" y="1093.176"/><rect fill="#FFFFFF" height="31.706" style="stroke:#181818;stroke-width:1.0;" width="10" x="1194.5" y="1302.6879"/><polygon fill="#181818" points="132.5,113.7739,142.5,117.7739,132.5,121.7739,136.5,117.7739" style="stroke:#181818;stroke-width:1.0;"/><line style="stroke:#181818;stroke-width:1.0;" x1="27.5" x2="138.5" y1="117.7739" y2="117.7739"/><text fill="#000000" font-family="sans-serif" font-size="13" lengthAdjust="spacing" textLength="86" x="34.5" y="111.9649">Request (DTO)</text><path d="M64,132.7739 L127,132.7739 L127,142.4799 L117,152.4799 L64,152.4799 L64,132.7739 " fill="#EEEEEE" style="stroke:#000000;stroke-width:1.5;"/><rect fill="none" height="1139.208" style="stroke:#000000;stroke-width:1.5;" width="1102" x="64" y="132.7739"/><text fill="#000000" font-family="sans-serif" font-size="13" font-weight="bold" lengthAdjust="spacing" textLength="18" x="79" y="147.6709">alt</text><text fill="#000000" font-family="sans-serif" font-size="11" font-weight="bold" lengthAdjust="spacing" textLength="181" x="142" y="146.5328">[Simple Flow (No Orchestration)]</text><path d="M74,159.4799 L137,159.4799 L137,169.186 L127,179.186 L74,179.186 L74,159.4799 " fill="#EEEEEE" style="stroke:#000000;stroke-width:1.5;"/><rect fill="none" height="226.924" style="stroke:#000000;stroke-width:1.5;" width="1062" x="74" y="159.4799"/><text fill="#000000" font-family="sans-serif" font-size="13" font-weight="bold" lengthAdjust="spacing" textLength="18" x="89" y="174.377">alt</text><text fill="#000000" font-family="sans-serif" font-size="11" font-weight="bold" lengthAdjust="spacing" textLength="85" x="152" y="173.2389">[Internal Logic]</text><polygon fill="#181818" points="743,198.892,753,202.892,743,206.892,747,202.892" style="stroke:#181818;stroke-width:1.0;"/><line style="stroke:#181818;stroke-width:1.0;" x1="154.5" x2="749" y1="202.892" y2="202.892"/><text fill="#000000" font-family="sans-serif" font-size="13" lengthAdjust="spacing" textLength="114" x="161.5" y="197.083">run(DomainModel)</text><polygon fill="#181818" points="165.5,230.598,155.5,234.598,165.5,238.598,161.5,234.598" style="stroke:#181818;stroke-width:1.0;"/><line style="stroke:#181818;stroke-width:1.0;stroke-dasharray:2.0,2.0;" x1="159.5" x2="759" y1="234.598" y2="234.598"/><text fill="#000000" font-family="sans-serif" font-size="13" lengthAdjust="spacing" textLength="68" x="171.5" y="228.789">Result Data</text><line style="stroke:#000000;stroke-width:1.0;stroke-dasharray:2.0,2.0;" x1="74" x2="1136" y1="243.598" y2="243.598"/><text fill="#000000" font-family="sans-serif" font-size="11" font-weight="bold" lengthAdjust="spacing" textLength="86" x="79" y="255.3569">[External Logic]</text><polygon fill="#181818" points="864.5,279.2859,874.5,283.2859,864.5,287.2859,868.5,283.2859" style="stroke:#181818;stroke-width:1.0;"/><line style="stroke:#181818;stroke-width:1.0;" x1="154.5" x2="870.5" y1="283.2859" y2="283.2859"/><text fill="#000000" font-family="sans-serif" font-size="13" lengthAdjust="spacing" textLength="112" x="161.5" y="277.4769">call(DomainModel)</text><polygon fill="#181818" points="1046.5,310.9919,1056.5,314.9919,1046.5,318.9919,1050.5,314.9919" style="stroke:#181818;stroke-width:1.0;"/><line style="stroke:#181818;stroke-width:1.0;" x1="886.5" x2="1052.5" y1="314.9919" y2="314.9919"/><text fill="#000000" font-family="sans-serif" font-size="13" lengthAdjust="spacing" textLength="153" x="893.5" y="309.1829">Convert to External &amp; Call</text><polygon fill="#181818" points="897.5,342.6979,887.5,346.6979,897.5,350.6979,893.5,346.6979" style="stroke:#181818;stroke-width:1.0;"/><line style="stroke:#181818;stroke-width:1.0;stroke-dasharray:2.0,2.0;" x1="891.5" x2="1062.5" y1="346.6979" y2="346.6979"/><text fill="#000000" font-family="sans-serif" font-size="13" lengthAdjust="spacing" textLength="58" x="903.5" y="340.8889">Response</text><polygon fill="#181818" points="165.5,374.404,155.5,378.404,165.5,382.404,161.5,378.404" style="stroke:#181818;stroke-width:1.0;"/><line style="stroke:#181818;stroke-width:1.0;stroke-dasharray:2.0,2.0;" x1="159.5" x2="880.5" y1="378.404" y2="378.404"/><text fill="#000000" font-family="sans-serif" font-size="13" lengthAdjust="spacing" textLength="185" x="171.5" y="372.595">Convert to Internal Result Data</text><line style="stroke:#000000;stroke-width:1.0;stroke-dasharray:2.0,2.0;" x1="64" x2="1166" y1="394.404" y2="394.404"/><text fill="#000000" font-family="sans-serif" font-size="11" font-weight="bold" lengthAdjust="spacing" textLength="226" x="69" y="406.1629">[Complex Flow (Orchestration Required)]</text><polygon fill="#181818" points="301.5,430.0919,311.5,434.0919,301.5,438.0919,305.5,434.0919" style="stroke:#181818;stroke-width:1.0;"/><line style="stroke:#181818;stroke-width:1.0;" x1="154.5" x2="307.5" y1="434.0919" y2="434.0919"/><text fill="#000000" font-family="sans-serif" font-size="13" lengthAdjust="spacing" textLength="140" x="161.5" y="428.2829">execute(DomainModel)</text><path d="M273,449.0919 L340,449.0919 L340,458.7979 L330,468.7979 L273,468.7979 L273,449.0919 " fill="#EEEEEE" style="stroke:#000000;stroke-width:1.5;"/><rect fill="none" height="83.118" style="stroke:#000000;stroke-width:1.5;" width="300" x="273" y="449.0919"/><text fill="#000000" font-family="sans-serif" font-size="13" font-weight="bold" lengthAdjust="spacing" textLength="22" x="288" y="463.9889">opt</text><text fill="#000000" font-family="sans-serif" font-size="11" font-weight="bold" lengthAdjust="spacing" textLength="72" x="355" y="462.8508">[Enrichment]</text><polygon fill="#181818" points="493.5,488.5039,503.5,492.5039,493.5,496.5039,497.5,492.5039" style="stroke:#181818;stroke-width:1.0;"/><line style="stroke:#181818;stroke-width:1.0;" x1="323.5" x2="499.5" y1="492.5039" y2="492.5039"/><text fill="#000000" font-family="sans-serif" font-size="13" lengthAdjust="spacing" textLength="132" x="330.5" y="486.6949">queryForEnrichment()</text><polygon fill="#181818" points="334.5,520.2099,324.5,524.2099,334.5,528.2099,330.5,524.2099" style="stroke:#181818;stroke-width:1.0;"/><line style="stroke:#181818;stroke-width:1.0;stroke-dasharray:2.0,2.0;" x1="328.5" x2="509.5" y1="524.2099" y2="524.2099"/><text fill="#000000" font-family="sans-serif" font-size="13" lengthAdjust="spacing" textLength="158" x="340.5" y="518.4009">Updated Model (No Logic)</text><path d="M273,546.2099 L340,546.2099 L340,555.9159 L330,565.9159 L273,565.9159 L273,546.2099 " fill="#EEEEEE" style="stroke:#000000;stroke-width:1.5;"/><rect fill="none" height="83.118" style="stroke:#000000;stroke-width:1.5;" width="426" x="273" y="546.2099"/><text fill="#000000" font-family="sans-serif" font-size="13" font-weight="bold" lengthAdjust="spacing" textLength="22" x="288" y="561.1069">opt</text><text fill="#000000" font-family="sans-serif" font-size="11" font-weight="bold" lengthAdjust="spacing" textLength="64" x="355" y="559.9688">[Validation]</text><polygon fill="#181818" points="614,585.6219,624,589.6219,614,593.6219,618,589.6219" style="stroke:#181818;stroke-width:1.0;"/><line style="stroke:#181818;stroke-width:1.0;" x1="323.5" x2="620" y1="589.6219" y2="589.6219"/><text fill="#000000" font-family="sans-serif" font-size="13" lengthAdjust="spacing" textLength="165" x="330.5" y="583.8129">validate(PreEnrichedModel)</text><polygon fill="#181818" points="334.5,617.328,324.5,621.328,334.5,625.328,330.5,621.328" style="stroke:#181818;stroke-width:1.0;"/><line style="stroke:#181818;stroke-width:1.0;stroke-dasharray:2.0,2.0;" x1="328.5" x2="630" y1="621.328" y2="621.328"/><text fill="#000000" font-family="sans-serif" font-size="13" lengthAdjust="spacing" textLength="155" x="340.5" y="615.519">ValidationContext (Errors)</text><path d="M238,643.328 L301,643.328 L301,653.034 L291,663.034 L238,663.034 L238,643.328 " fill="#EEEEEE" style="stroke:#000000;stroke-width:1.5;"/><rect fill="none" height="589.9479" style="stroke:#000000;stroke-width:1.5;" width="918" x="238" y="643.328"/><text fill="#000000" font-family="sans-serif" font-size="13" font-weight="bold" lengthAdjust="spacing" textLength="18" x="253" y="658.225">alt</text><text fill="#000000" font-family="sans-serif" font-size="11" font-weight="bold" lengthAdjust="spacing" textLength="105" x="316" y="657.0869">[Validation Passed]</text><path d="M273,670.034 L336,670.034 L336,679.74 L326,689.74 L273,689.74 L273,670.034 " fill="#EEEEEE" style="stroke:#000000;stroke-width:1.5;"/><rect fill="none" height="226.924" style="stroke:#000000;stroke-width:1.5;" width="863" x="273" y="670.034"/><text fill="#000000" font-family="sans-serif" font-size="13" font-weight="bold" lengthAdjust="spacing" textLength="18" x="288" y="684.931">alt</text><text fill="#000000" font-family="sans-serif" font-size="11" font-weight="bold" lengthAdjust="spacing" textLength="140" x="351" y="683.7929">[Principal Flow (Internal)]</text><polygon fill="#181818" points="743,709.446,753,713.446,743,717.446,747,713.446" style="stroke:#181818;stroke-width:1.0;"/><line style="stroke:#181818;stroke-width:1.0;" x1="323.5" x2="749" y1="713.446" y2="713.446"/><text fill="#000000" font-family="sans-serif" font-size="13" lengthAdjust="spacing" textLength="114" x="330.5" y="707.637">run(DomainModel)</text><polygon fill="#181818" points="334.5,741.152,324.5,745.152,334.5,749.152,330.5,745.152" style="stroke:#181818;stroke-width:1.0;"/><line style="stroke:#181818;stroke-width:1.0;stroke-dasharray:2.0,2.0;" x1="328.5" x2="759" y1="745.152" y2="745.152"/><text fill="#000000" font-family="sans-serif" font-size="13" lengthAdjust="spacing" textLength="154" x="340.5" y="739.343">Business Execution Result</text><line style="stroke:#000000;stroke-width:1.0;stroke-dasharray:2.0,2.0;" x1="273" x2="1136" y1="754.152" y2="754.152"/><text fill="#000000" font-family="sans-serif" font-size="11" font-weight="bold" lengthAdjust="spacing" textLength="141" x="278" y="765.9109">[Principal Flow (External)]</text><polygon fill="#181818" points="864.5,789.8399,874.5,793.8399,864.5,797.8399,868.5,793.8399" style="stroke:#181818;stroke-width:1.0;"/><line style="stroke:#181818;stroke-width:1.0;" x1="323.5" x2="870.5" y1="793.8399" y2="793.8399"/><text fill="#000000" font-family="sans-serif" font-size="13" lengthAdjust="spacing" textLength="112" x="330.5" y="788.0309">call(DomainModel)</text><polygon fill="#181818" points="1046.5,821.5459,1056.5,825.5459,1046.5,829.5459,1050.5,825.5459" style="stroke:#181818;stroke-width:1.0;"/><line style="stroke:#181818;stroke-width:1.0;" x1="886.5" x2="1052.5" y1="825.5459" y2="825.5459"/><text fill="#000000" font-family="sans-serif" font-size="13" lengthAdjust="spacing" textLength="44" x="893.5" y="819.7369">API Call</text><polygon fill="#181818" points="897.5,853.252,887.5,857.252,897.5,861.252,893.5,857.252" style="stroke:#181818;stroke-width:1.0;"/><line style="stroke:#181818;stroke-width:1.0;stroke-dasharray:2.0,2.0;" x1="891.5" x2="1062.5" y1="857.252" y2="857.252"/><text fill="#000000" font-family="sans-serif" font-size="13" lengthAdjust="spacing" textLength="58" x="903.5" y="851.443">Response</text><polygon fill="#181818" points="334.5,884.958,324.5,888.958,334.5,892.958,330.5,888.958" style="stroke:#181818;stroke-width:1.0;"/><line style="stroke:#181818;stroke-width:1.0;stroke-dasharray:2.0,2.0;" x1="328.5" x2="880.5" y1="888.958" y2="888.958"/><text fill="#000000" font-family="sans-serif" font-size="13" lengthAdjust="spacing" textLength="80" x="340.5" y="883.149">External Data</text><path d="M263,910.958 L336,910.958 L336,920.664 L326,930.664 L263,930.664 L263,910.958 " fill="#EEEEEE" style="stroke:#000000;stroke-width:1.5;"/><rect fill="none" height="260.63" style="stroke:#000000;stroke-width:1.5;" width="883" x="263" y="910.958"/><text fill="#000000" font-family="sans-serif" font-size="13" font-weight="bold" lengthAdjust="spacing" textLength="28" x="278" y="925.855">loop</text><text fill="#000000" font-family="sans-serif" font-size="11" font-weight="bold" lengthAdjust="spacing" textLength="71" x="351" y="924.7169">[Side Effects]</text><path d="M273,937.664 L336,937.664 L336,947.37 L326,957.37 L273,957.37 L273,937.664 " fill="#EEEEEE" style="stroke:#000000;stroke-width:1.5;"/><rect fill="none" height="226.924" style="stroke:#000000;stroke-width:1.5;" width="863" x="273" y="937.664"/><text fill="#000000" font-family="sans-serif" font-size="13" font-weight="bold" lengthAdjust="spacing" textLength="18" x="288" y="952.561">alt</text><text fill="#000000" font-family="sans-serif" font-size="11" font-weight="bold" lengthAdjust="spacing" textLength="88" x="351" y="951.4229">[Internal Effect]</text><polygon fill="#181818" points="743,977.076,753,981.076,743,985.076,747,981.076" style="stroke:#181818;stroke-width:1.0;"/><line style="stroke:#181818;stroke-width:1.0;" x1="323.5" x2="749" y1="981.076" y2="981.076"/><text fill="#000000" font-family="sans-serif" font-size="13" lengthAdjust="spacing" textLength="110" x="330.5" y="975.267">run(EffectContext)</text><polygon fill="#181818" points="334.5,1008.782,324.5,1012.782,334.5,1016.782,330.5,1012.782" style="stroke:#181818;stroke-width:1.0;"/><line style="stroke:#181818;stroke-width:1.0;stroke-dasharray:2.0,2.0;" x1="328.5" x2="759" y1="1012.782" y2="1012.782"/><text fill="#000000" font-family="sans-serif" font-size="13" lengthAdjust="spacing" textLength="73" x="340.5" y="1006.973">Effect Result</text><line style="stroke:#000000;stroke-width:1.0;stroke-dasharray:2.0,2.0;" x1="273" x2="1136" y1="1021.782" y2="1021.782"/><text fill="#000000" font-family="sans-serif" font-size="11" font-weight="bold" lengthAdjust="spacing" textLength="89" x="278" y="1033.541">[External Effect]</text><polygon fill="#181818" points="864.5,1057.4699,874.5,1061.4699,864.5,1065.4699,868.5,1061.4699" style="stroke:#181818;stroke-width:1.0;"/><line style="stroke:#181818;stroke-width:1.0;" x1="323.5" x2="870.5" y1="1061.4699" y2="1061.4699"/><text fill="#000000" font-family="sans-serif" font-size="13" lengthAdjust="spacing" textLength="108" x="330.5" y="1055.6609">call(EffectContext)</text><polygon fill="#181818" points="1046.5,1089.176,1056.5,1093.176,1046.5,1097.176,1050.5,1093.176" style="stroke:#181818;stroke-width:1.0;"/><line style="stroke:#181818;stroke-width:1.0;" x1="886.5" x2="1052.5" y1="1093.176" y2="1093.176"/><text fill="#000000" font-family="sans-serif" font-size="13" lengthAdjust="spacing" textLength="44" x="893.5" y="1087.367">API Call</text><polygon fill="#181818" points="897.5,1120.882,887.5,1124.882,897.5,1128.882,893.5,1124.882" style="stroke:#181818;stroke-width:1.0;"/><line style="stroke:#181818;stroke-width:1.0;stroke-dasharray:2.0,2.0;" x1="891.5" x2="1062.5" y1="1124.882" y2="1124.882"/><text fill="#000000" font-family="sans-serif" font-size="13" lengthAdjust="spacing" textLength="58" x="903.5" y="1119.073">Response</text><polygon fill="#181818" points="334.5,1152.588,324.5,1156.588,334.5,1160.588,330.5,1156.588" style="stroke:#181818;stroke-width:1.0;"/><line style="stroke:#181818;stroke-width:1.0;stroke-dasharray:2.0,2.0;" x1="328.5" x2="880.5" y1="1156.588" y2="1156.588"/><text fill="#000000" font-family="sans-serif" font-size="13" lengthAdjust="spacing" textLength="73" x="340.5" y="1150.779">Effect Result</text><line style="stroke:#000000;stroke-width:1.0;stroke-dasharray:2.0,2.0;" x1="238" x2="1156" y1="1179.588" y2="1179.588"/><text fill="#000000" font-family="sans-serif" font-size="11" font-weight="bold" lengthAdjust="spacing" textLength="100" x="243" y="1191.3469">[Validation Failed]</text><path d="M248,1200.5699 L248,1227.5699 L389,1227.5699 L389,1210.5699 L379,1200.5699 L248,1200.5699 " fill="#FEFFDD" style="stroke:#181818;stroke-width:0.5;"/><path d="M379,1200.5699 L379,1210.5699 L389,1210.5699 L379,1200.5699 " fill="#FEFFDD" style="stroke:#181818;stroke-width:0.5;"/><text fill="#000000" font-family="sans-serif" font-size="13" lengthAdjust="spacing" textLength="120" x="254" y="1219.4669">Pipeline Interrupted</text><polygon fill="#181818" points="165.5,1259.9819,155.5,1263.9819,165.5,1267.9819,161.5,1263.9819" style="stroke:#181818;stroke-width:1.0;"/><line style="stroke:#181818;stroke-width:1.0;stroke-dasharray:2.0,2.0;" x1="159.5" x2="317.5" y1="1263.9819" y2="1263.9819"/><text fill="#000000" font-family="sans-serif" font-size="13" lengthAdjust="spacing" textLength="107" x="171.5" y="1258.1729">ExecutionContext</text><polygon fill="#181818" points="1182.5,1298.6879,1192.5,1302.6879,1182.5,1306.6879,1186.5,1302.6879" style="stroke:#181818;stroke-width:1.0;"/><line style="stroke:#181818;stroke-width:1.0;" x1="154.5" x2="1188.5" y1="1302.6879" y2="1302.6879"/><text fill="#000000" font-family="sans-serif" font-size="13" lengthAdjust="spacing" textLength="145" x="161.5" y="1296.8789">format(Result / Context)</text><polygon fill="#181818" points="165.5,1330.394,155.5,1334.394,165.5,1338.394,161.5,1334.394" style="stroke:#181818;stroke-width:1.0;"/><line style="stroke:#181818;stroke-width:1.0;stroke-dasharray:2.0,2.0;" x1="159.5" x2="1198.5" y1="1334.394" y2="1334.394"/><text fill="#000000" font-family="sans-serif" font-size="13" lengthAdjust="spacing" textLength="77" x="171.5" y="1328.5849">Unified JSON</text><polygon fill="#181818" points="38.5,1362.1,28.5,1366.1,38.5,1370.1,34.5,1366.1" style="stroke:#181818;stroke-width:1.0;"/><line style="stroke:#181818;stroke-width:1.0;stroke-dasharray:2.0,2.0;" x1="32.5" x2="148.5" y1="1366.1" y2="1366.1"/><text fill="#000000" font-family="sans-serif" font-size="13" lengthAdjust="spacing" textLength="93" x="44.5" y="1360.291">HTTP Response</text><!--SRC=[bLPDSziW4BthL-paqB4FcTnrw4ph9DDqsiIJZzuPQTqmWq45xBh_le0G0eGjHISRbkNjsyS3qcWXOSCeSbrrH6hQq8vm3LVFug1Htcm4rr8mXl8AY8BnRnBzfd1352PZTrpIvlq5vP4swSmlmcXBD9RclXuKvQXKQUwgn-cd79wxaow1DyCeEM5mA_Q4yY7qo_OXYNj6rGck0f2gpmNNdwD2QnFsvu1Am-hszMbTaKRJeq4VSr4Hfk65xZk6SC_4NrWz2dYIpRjP9eccWgyhC9yDU-0Usm_ncpPks7vZDhjzHaCDyi1NVJ4_HOji7TO5E3bpGq0s3jUJwjJ1mBebceGrBLvCYqmX18ulrH7wKqD369ifOUpcC1L6V3BJmTfkSKIfGOiHn2VOcFp5bBRhKJxprt4GGHjqKAf_cc00bF4OeGejdk4shHTvMpbcDy8AwUILbCZ8QP5AR7lsKhBzAQm1JzYOqpjbE-my75WtAhhXjEvZxdsCOpu-opMOuo3_tGivBbgLkfaOG20m7dKa1jXldNM55XnWTuISjDP5wYR9BNsX76ynXh5IEPa1rN3q0wkjn3upjkT4chlN492DfwMDU6pBy6JCv4vA8LMnkD8MeJph8MCws1Abi1rXcjcjfDmw7FCA6kGuxfNniTnj5ZdEETS9R0oJvW1OeVQwjYSbIJ5ZGi68yd87JpXRxY9JcZ6ci-PaxIMneajsz05BkcnBKsiAP8ztOUn25vqeqPlzc12TkTzQ4xZROQDLMbryg_K1oVmIjVNB_E5OJvOlqjoixlfDIbfRgBVfvJTVRgwsfPMMDVSntSrfxuFwczVW9Hqk9RzSkDLZ_jkr8lB2Uq9Pv8LSc6p2NCeZY2tja9dMzdgLXqxx-23tqBdiUWzMvJjNPQY76zKbIk_bx9bPmqx8FT4h_pguWI26a2r_cMR_9-ZUEDrHStL-Vtbwh29KqnTkXCpcyEt-zlgw7NiU9OWUkVy1]--></g></svg>