<?xml version="1.0" encoding="us-ascii" standalone="no"?><svg xmlns="http://www.w3.org/2000/svg" xmlns:xlink="http://www.w3.org/1999/xlink" contentStyleType="text/css" height="694px" preserveAspectRatio="none" style="width:1942px;height:694px;background:#FFFFFF;" version="1.1" viewBox="0 0 1942 694" width="1942px" zoomAndPan="magnify"><defs/><g><!--cluster FlowDec--><g id="cluster_FlowDec"><path d="M1365.5,12 L1741.5,12 A12.5,12.5 0 0 1 1754,24.5 L1754,36.0679 L1353,36.0679 L1353,24.5 A12.5,12.5 0 0 1 1365.5,12 " fill="#FFFFFF" style="stroke:#FFFFFF;stroke-width:1.0;"/><path d="M1353,36.0679 L1754,36.0679 L1754,173.5 A12.5,12.5 0 0 1 1741.5,186 L1365.5,186 A12.5,12.5 0 0 1 1353,173.5 L1353,36.0679 " fill="#FFFFFF" style="stroke:#FFFFFF;stroke-width:1.0;"/><rect fill="none" height="174" rx="12.5" ry="12.5" style="stroke:#000000;stroke-width:1.0;" width="401" x="1353" y="12"/><line style="stroke:#000000;stroke-width:1.0;" x1="1353" x2="1754" y1="36.0679" y2="36.0679"/><text fill="#000000" font-family="Verdana" font-size="14" lengthAdjust="spacing" textLength="160" x="1473.5" y="30.9659">Execution Flow Decision</text></g><!--cluster Complex--><g id="cluster_Complex"><path d="M1500.5,58 L1717.5,58 A12.5,12.5 0 0 1 1730,70.5 L1730,82.0679 L1488,82.0679 L1488,70.5 A12.5,12.5 0 0 1 1500.5,58 " fill="#FFFFFF" style="stroke:#FFFFFF;stroke-width:1.0;"/><path d="M1488,82.0679 L1730,82.0679 L1730,149.5 A12.5,12.5 0 0 1 1717.5,162 L1500.5,162 A12.5,12.5 0 0 1 1488,149.5 L1488,82.0679 " fill="#FFFFFF" style="stroke:#FFFFFF;stroke-width:1.0;"/><rect fill="none" height="104" rx="12.5" ry="12.5" style="stroke:#000000;stroke-width:1.0;" width="242" x="1488" y="58"/><line style="stroke:#000000;stroke-width:1.0;" x1="1488" x2="1730" y1="82.0679" y2="82.0679"/><text fill="#000000" font-family="Verdana" font-size="14" lengthAdjust="spacing" textLength="161" x="1528.5" y="76.9659">Complex Flow (UseCase)</text></g><g id="FlowDec.Simple"><rect fill="#FFFFFF" height="50" rx="12.5" ry="12.5" style="stroke:#000000;stroke-width:1.0;" width="100" x="1369" y="96"/><line style="stroke:#000000;stroke-width:1.0;" x1="1369" x2="1469" y1="125.0679" y2="125.0679"/><text fill="#000000" font-family="Verdana" font-size="14" lengthAdjust="spacing" textLength="80" x="1379" y="115.9659">Simple Flow</text></g><g id="FlowDec.Complex.BusExtExec"><rect fill="#FFFFFF" height="50" rx="12.5" ry="12.5" style="stroke:#000000;stroke-width:1.0;" width="209" x="1504.5" y="96"/><line style="stroke:#000000;stroke-width:1.0;" x1="1504.5" x2="1713.5" y1="125.0679" y2="125.0679"/><text fill="#000000" font-family="Verdana" font-size="14" lengthAdjust="spacing" textLength="189" x="1514.5" y="115.9659">Business/External Execution</text></g><g id="DTO"><rect fill="#ADD8E6" height="50" rx="12.5" ry="12.5" style="stroke:#000000;stroke-width:1.0;" width="117" x="263.5" y="251"/><line style="stroke:#000000;stroke-width:1.0;" x1="263.5" x2="380.5" y1="280.0679" y2="280.0679"/><text fill="#000000" font-family="Verdana" font-size="14" lengthAdjust="spacing" textLength="97" x="273.5" y="270.9659">Incoming DTO</text></g><g id="DomainModel"><rect fill="#FAFAD2" height="50" rx="12.5" ry="12.5" style="stroke:#000000;stroke-width:1.0;" width="118" x="263" y="380"/><line style="stroke:#000000;stroke-width:1.0;" x1="263" x2="381" y1="409.0679" y2="409.0679"/><text fill="#000000" font-family="Verdana" font-size="14" lengthAdjust="spacing" textLength="98" x="273" y="399.9659">Domain Model</text></g><g id="ExtReq"><rect fill="#D3D3D3" height="50" rx="12.5" ry="12.5" style="stroke:#000000;stroke-width:1.0;" width="134" x="12" y="509"/><line style="stroke:#000000;stroke-width:1.0;" x1="12" x2="146" y1="538.0679" y2="538.0679"/><text fill="#000000" font-family="Verdana" font-size="14" lengthAdjust="spacing" textLength="114" x="22" y="528.9659">External Request</text></g><g id="ExtRes"><rect fill="#D3D3D3" height="50" rx="12.5" ry="12.5" style="stroke:#000000;stroke-width:1.0;" width="144" x="254" y="638"/><line style="stroke:#000000;stroke-width:1.0;" x1="254" x2="398" y1="667.0679" y2="667.0679"/><text fill="#000000" font-family="Verdana" font-size="14" lengthAdjust="spacing" textLength="124" x="264" y="657.9659">External Response</text></g><g id="Context"><rect fill="#D8BFD8" height="50" rx="12.5" ry="12.5" style="stroke:#000000;stroke-width:1.0;" width="140" x="1640" y="251"/><line style="stroke:#000000;stroke-width:1.0;" x1="1640" x2="1780" y1="280.0679" y2="280.0679"/><text fill="#000000" font-family="Verdana" font-size="14" lengthAdjust="spacing" textLength="120" x="1650" y="270.9659">Execution Context</text></g><g id="UnifiedResp"><rect fill="#ADD8E6" height="50" rx="12.5" ry="12.5" style="stroke:#000000;stroke-width:1.0;" width="176" x="1393" y="380"/><line style="stroke:#000000;stroke-width:1.0;" x1="1393" x2="1569" y1="409.0679" y2="409.0679"/><text fill="#000000" font-family="Verdana" font-size="14" lengthAdjust="spacing" textLength="156" x="1403" y="399.9659">Unified JSON Response</text></g><ellipse cx="322" cy="121" fill="#FFFFFF" rx="10" ry="10" style="stroke:#000000;stroke-width:1.0;"/><ellipse cx="1481" cy="534" fill="none" rx="11" ry="11" style="stroke:#000000;stroke-width:1.0;"/><ellipse cx="1481" cy="534" fill="#FFFFFF" rx="6" ry="6" style="stroke:#000000;stroke-width:1.0;"/><g id="elem_GMN30"><path d="M415.5,262 L415.5,272 L380.74,276 L415.5,280 L415.5,289.706 A0,0 0 0 0 415.5,289.706 L520.5,289.706 A0,0 0 0 0 520.5,289.706 L520.5,272 L510.5,262 L415.5,262 A0,0 0 0 0 415.5,262 " fill="#FFFFFF" style="stroke:#000000;stroke-width:1.0;"/><path d="M510.5,262 L510.5,272 L520.5,272 L510.5,262 " fill="#FFFFFF" style="stroke:#000000;stroke-width:1.0;"/><text fill="#000000" font-family="Verdana" font-size="13" lengthAdjust="spacing" textLength="84" x="421.5" y="280.897">Raw API Input</text></g><g id="elem_GMN33"><path d="M1218.5,391 L1218.5,401 L381.43,405 L1218.5,409 L1218.5,418.706 A0,0 0 0 0 1218.5,418.706 L1357.5,418.706 A0,0 0 0 0 1357.5,418.706 L1357.5,401 L1347.5,391 L1218.5,391 A0,0 0 0 0 1218.5,391 " fill="#FFFFFF" style="stroke:#000000;stroke-width:1.0;"/><path d="M1347.5,391 L1347.5,401 L1357.5,401 L1347.5,391 " fill="#FFFFFF" style="stroke:#000000;stroke-width:1.0;"/><text fill="#000000" font-family="Verdana" font-size="13" lengthAdjust="spacing" textLength="118" x="1224.5" y="409.897">Business Logic Data</text></g><g id="elem_GMN36"><path d="M181,520 L181,530 L146.1,534 L181,538 L181,547.706 A0,0 0 0 0 181,547.706 L333,547.706 A0,0 0 0 0 333,547.706 L333,530 L323,520 L181,520 A0,0 0 0 0 181,520 " fill="#FFFFFF" style="stroke:#000000;stroke-width:1.0;"/><path d="M323,520 L323,530 L333,530 L323,520 " fill="#FFFFFF" style="stroke:#000000;stroke-width:1.0;"/><text fill="#000000" font-family="Verdana" font-size="13" lengthAdjust="spacing" textLength="131" x="187" y="538.897">Third-party structures</text></g><g id="elem_GMN39"><path d="M1815,262 L1815,272 L1780.25,276 L1815,280 L1815,289.706 A0,0 0 0 0 1815,289.706 L1935,289.706 A0,0 0 0 0 1935,289.706 L1935,272 L1925,262 L1815,262 A0,0 0 0 0 1815,262 " fill="#FFFFFF" style="stroke:#000000;stroke-width:1.0;"/><path d="M1925,262 L1925,272 L1935,272 L1925,262 " fill="#FFFFFF" style="stroke:#000000;stroke-width:1.0;"/><text fill="#000000" font-family="Verdana" font-size="13" lengthAdjust="spacing" textLength="99" x="1821" y="280.897">BRDD Storyteller</text></g><!--link *start* to DTO--><g id="link_*start*_DTO"><path d="M322,131.11 C322,154.34 322,210.34 322,244.9 " fill="none" id="*start*-to-DTO" style="stroke:#000000;stroke-width:1.0;"/><polygon fill="#000000" points="322,250.9,326,241.9,322,245.9,318,241.9,322,250.9" style="stroke:#000000;stroke-width:1.0;"/><text fill="#000000" font-family="Verdana" font-size="13" lengthAdjust="spacing" textLength="84" x="323" y="216.897">HTTP Request</text></g><!--link DTO to DomainModel--><g id="link_DTO_DomainModel"><path d="M322,301.19 C322,323.78 322,351.33 322,373.9 " fill="none" id="DTO-to-DomainModel" style="stroke:#000000;stroke-width:1.0;"/><polygon fill="#000000" points="322,379.9,326,370.9,322,374.9,318,370.9,322,379.9" style="stroke:#000000;stroke-width:1.0;"/><text fill="#000000" font-family="Verdana" font-size="13" lengthAdjust="spacing" textLength="116" x="323" y="345.897">Mapped to Domain</text></g><!--link DomainModel to DomainModel--><g id="link_DomainModel_DomainModel"><path d="M381.21,402 C400.58,402.02 416,403.02 416,405 C416,406.98 406.58,407.9738 387.21,407.9938 " fill="none" id="DomainModel-to-DomainModel" style="stroke:#000000;stroke-width:1.0;"/><polygon fill="#000000" points="381.21,408,390.2141,411.9907,386.21,407.9948,390.2059,403.9907,381.21,408" style="stroke:#000000;stroke-width:1.0;"/><text fill="#000000" font-family="Verdana" font-size="13" lengthAdjust="spacing" textLength="157" x="422" y="410.397">Mutated (BusinessService)</text></g><!--link DomainModel to DomainModel--><g id="link_DomainModel_DomainModel"><path d="M381.23,400.5 C461.25,397.5 585,399 585,405 C585,411 467.2458,412.7248 387.2258,409.7248 " fill="none" id="DomainModel-to-DomainModel-1" style="stroke:#000000;stroke-width:1.0;"/><polygon fill="#000000" points="381.23,409.5,390.0738,413.8344,386.2265,409.6873,390.3735,405.84,381.23,409.5" style="stroke:#000000;stroke-width:1.0;"/><text fill="#000000" font-family="Verdana" font-size="13" lengthAdjust="spacing" textLength="211" x="591" y="410.397">Enriched via Queries (EnrichService)</text></g><!--link DomainModel to DomainModel--><g id="link_DomainModel_DomainModel"><path d="M381.36,399.78 C514.98,393.37 808,395.11 808,405 C808,414.89 520.9731,416.9175 387.3531,410.5075 " fill="none" id="DomainModel-to-DomainModel-2" style="stroke:#000000;stroke-width:1.0;"/><polygon fill="#000000" points="381.36,410.22,390.158,414.6467,386.3543,410.4596,390.5413,406.6558,381.36,410.22" style="stroke:#000000;stroke-width:1.0;"/><text fill="#000000" font-family="Verdana" font-size="13" lengthAdjust="spacing" textLength="157" x="814" y="410.397">Validated (ValidateService)</text></g><!--link DomainModel to DomainModel--><g id="link_DomainModel_DomainModel"><path d="M381.28,399 C548.16,389.34 977,391.34 977,405 C977,418.66 554.15,421.0067 387.27,411.3467 " fill="none" id="DomainModel-to-DomainModel-3" style="stroke:#000000;stroke-width:1.0;"/><polygon fill="#000000" points="381.28,411,390.0338,415.5134,386.2716,411.2889,390.4961,407.5268,381.28,411" style="stroke:#000000;stroke-width:1.0;"/><text fill="#000000" font-family="Verdana" font-size="13" lengthAdjust="spacing" textLength="157" x="983" y="410.397">Mutated (BusinessService)</text></g><!--link DomainModel to ExtReq--><g id="link_DomainModel_ExtReq"><path d="M262.91,409.67 C193.39,415.36 84.22,429.07 59,460 C47.79,473.75 51.1015,488.0247 59.4515,503.4347 " fill="none" id="DomainModel-to-ExtReq" style="stroke:#000000;stroke-width:1.0;"/><polygon fill="#000000" points="62.31,508.71,61.5392,498.8914,59.9279,504.3139,54.5054,502.7026,62.31,508.71" style="stroke:#000000;stroke-width:1.0;"/><text fill="#000000" font-family="Verdana" font-size="13" lengthAdjust="spacing" textLength="137" x="60" y="474.897">Mapped (ClientService)</text></g><!--link DomainModel to ExtReq--><g id="link_DomainModel_ExtReq"><path d="M285.17,430.16 C261.8,445.05 230.66,464.08 202,479 C181.63,489.61 164.2293,497.6735 143.7593,506.5035 " fill="none" id="DomainModel-to-ExtReq-1" style="stroke:#000000;stroke-width:1.0;"/><polygon fill="#000000" points="138.25,508.88,148.0983,508.9881,142.8411,506.8996,144.9296,501.6424,138.25,508.88" style="stroke:#000000;stroke-width:1.0;"/><text fill="#000000" font-family="Verdana" font-size="13" lengthAdjust="spacing" textLength="137" x="237" y="474.897">Mapped (ClientService)</text></g><!--link ExtReq to ExtRes--><g id="link_ExtReq_ExtRes"><path d="M100.35,559.27 C115.38,575.07 136.73,595.06 159,608 C188.12,624.91 217.4358,635.6494 247.9258,644.2594 " fill="none" id="ExtReq-to-ExtRes" style="stroke:#000000;stroke-width:1.0;"/><polygon fill="#000000" points="253.7,645.89,246.1258,639.5947,248.8882,644.5312,243.9517,647.2936,253.7,645.89" style="stroke:#000000;stroke-width:1.0;"/><text fill="#000000" font-family="Verdana" font-size="13" lengthAdjust="spacing" textLength="73" x="160" y="603.897">External Call</text></g><!--link ExtReq to ExtRes--><g id="link_ExtReq_ExtRes"><path d="M146.29,555.17 C181.97,566.39 221.72,579.89 238,589 C261.73,602.27 280.8924,618.1468 297.6424,633.8468 " fill="none" id="ExtReq-to-ExtRes-1" style="stroke:#000000;stroke-width:1.0;"/><polygon fill="#000000" points="302.02,637.95,298.189,628.8768,298.372,634.5307,292.7181,634.7136,302.02,637.95" style="stroke:#000000;stroke-width:1.0;"/><text fill="#000000" font-family="Verdana" font-size="13" lengthAdjust="spacing" textLength="73" x="266" y="603.897">External Call</text></g><!--link ExtRes to DomainModel--><g id="link_ExtRes_DomainModel"><path d="M342.8,637.89 C367.53,599.2 408.03,521.37 381,460 C375.96,448.56 371.6642,442.4765 362.3842,434.2265 " fill="none" id="ExtRes-to-DomainModel" style="stroke:#000000;stroke-width:1.0;"/><polygon fill="#000000" points="357.9,430.24,361.9686,439.2092,361.6368,433.5621,367.2839,433.2303,357.9,430.24" style="stroke:#000000;stroke-width:1.0;"/><text fill="#000000" font-family="Verdana" font-size="13" lengthAdjust="spacing" textLength="168" x="391" y="539.397">Mapped Back (ClientService)</text></g><!--link ExtRes to DomainModel--><g id="link_ExtRes_DomainModel"><path d="M398.2,647.4 C485.78,626.2 616.12,581.32 568,509 C526.64,446.84 445.6982,423.1072 387.0682,413.3272 " fill="none" id="ExtRes-to-DomainModel-1" style="stroke:#000000;stroke-width:1.0;"/><polygon fill="#000000" points="381.15,412.34,389.3692,417.7663,386.0819,413.1627,390.6855,409.8753,381.15,412.34" style="stroke:#000000;stroke-width:1.0;"/><text fill="#000000" font-family="Verdana" font-size="13" lengthAdjust="spacing" textLength="168" x="580" y="539.397">Mapped Back (ClientService)</text></g><!--link BusExtExec to Context--><g id="link_BusExtExec_Context"><path d="M1625,146.24 C1643.92,174.89 1671.8845,217.2627 1690.7645,245.8627 " fill="none" id="BusExtExec-to-Context" style="stroke:#000000;stroke-width:1.0;"/><polygon fill="#000000" points="1694.07,250.87,1692.4499,241.1553,1691.3154,246.6972,1685.7735,245.5627,1694.07,250.87" style="stroke:#000000;stroke-width:1.0;"/><text fill="#000000" font-family="Verdana" font-size="13" lengthAdjust="spacing" textLength="184" x="1672" y="216.897">Wrapped with Setters &amp; Effects</text></g><!--link Simple to UnifiedResp--><g id="link_Simple_UnifiedResp"><path d="M1410.79,146.18 C1400.21,181.27 1385.17,247.91 1403,301 C1413.29,331.62 1432.5292,356.0475 1451.0292,375.3575 " fill="none" id="Simple-to-UnifiedResp" style="stroke:#000000;stroke-width:1.0;"/><polygon fill="#000000" points="1455.18,379.69,1451.8422,370.424,1451.721,376.0796,1446.0654,375.9584,1455.18,379.69" style="stroke:#000000;stroke-width:1.0;"/><text fill="#000000" font-family="Verdana" font-size="13" lengthAdjust="spacing" textLength="218" x="1404" y="281.397">ResponseService formats Raw Result</text></g><!--link Context to UnifiedResp--><g id="link_Context_UnifiedResp"><path d="M1666.66,301.04 C1625.94,323.62 1570.5872,354.3202 1529.7972,376.9402 " fill="none" id="Context-to-UnifiedResp" style="stroke:#000000;stroke-width:1.0;"/><polygon fill="#000000" points="1524.55,379.85,1534.3607,378.9834,1528.9227,377.4252,1530.4809,371.9872,1524.55,379.85" style="stroke:#000000;stroke-width:1.0;"/><text fill="#000000" font-family="Verdana" font-size="13" lengthAdjust="spacing" textLength="201" x="1610" y="345.897">ResponseService formats Context</text></g><!--link UnifiedResp to *end*--><g id="link_UnifiedResp_*end*"><path d="M1481,430.19 C1481,458.11 1481,496.76 1481,516.74 " fill="none" id="UnifiedResp-to-*end*" style="stroke:#000000;stroke-width:1.0;"/><polygon fill="#000000" points="1481,522.74,1485,513.74,1481,517.74,1477,513.74,1481,522.74" style="stroke:#000000;stroke-width:1.0;"/><text fill="#000000" font-family="Verdana" font-size="13" lengthAdjust="spacing" textLength="93" x="1482" y="474.897">HTTP Response</text></g><!--SRC=[fLLTRzCm57tthxZi0NL85U_LL8ac1OesDjeEX10FLdBRMdFiu8-r5Tf_ntRij2aPgiP3clZUSx_EiTrNPeCLGiqf4qG_C55JHIlGXXg4tmHWGek7jP9Mb9daKbrTJNS6bQ1yF8PhjjwO3uhk-t2PLEWmomtJXcCV8fULgzhcaRn4CPVbT-HSRdi3bhS9FU4MoHCXJQCNCr78YearECW5KEtV40CIfYa7Dx94tc228QpXq4s2fpbXZhyiQXD2dD4juPY57hokfT1u2D3F161X3PC2CYaCxfeAyHiIWGbzBzYAOGcV5hUVkoMYnzlQaScFDpzXE1m77aRmSRcyItCGRmgke_57S4FhsgKtCjh9tss-Tx90ZWNJRXLAUuipX8qIuGjMrHo39q3YsYEWKxAd1UjJb32OMCq4Qhr0zSWAlEoDZLAqdGyopb2OJap4j73juArE6UNyWDBFS-BtOK_w9_SSviwadtFNa3IurvXHZPTHqiPr3WTJeLYnSKKV6OKl5XLpdGqQwp_fwARvIZah6pBJPoSw_CJE4zjlMsPQoKFxpkyytXOd-3yTNwRakLg-MCr6pyZCqSW-JpgJ8_YccYHRPZQmGEFAQtWDqzKA2wF3fd2NKjppFlJuS8xQSnlhmaggYXeDSxhrFiiDIRNE3uuHv1Zje_qLq1xz9fGG8Ptaoj-W85VnTl3LtztDO2PgQquH7GgJe70jrwo0d1fwWc-rTFU-AeVktyJitKPJjZ1MeJv17uYTpFCS5aQglN7NFoho1m00]--></g></svg>