<?xml version="1.0" encoding="us-ascii" standalone="no"?><svg xmlns="http://www.w3.org/2000/svg" xmlns:xlink="http://www.w3.org/1999/xlink" contentStyleType="text/css" height="1323px" preserveAspectRatio="none" style="width:1358px;height:1323px;background:#FFFFFF;" version="1.1" viewBox="0 0 1358 1323" width="1358px" zoomAndPan="magnify"><defs/><g><ellipse cx="603.6875" cy="20" fill="#222222" rx="10" ry="10" style="stroke:#222222;stroke-width:1.0;"/><rect fill="#F1F1F1" height="36.3441" rx="12.5" ry="12.5" style="stroke:#181818;stroke-width:0.5;" width="217" x="495.1875" y="50"/><text fill="#000000" font-family="sans-serif" font-size="12" lengthAdjust="spacing" textLength="145" x="505.1875" y="72.8281">Router / Controller recebe</text><text fill="#000000" font-family="sans-serif" font-size="12" font-weight="bold" lengthAdjust="spacing" textLength="49" x="653.1875" y="72.8281">Request</text><polygon fill="#F1F1F1" points="522.6875,106.3441,684.6875,106.3441,696.6875,118.3441,684.6875,130.3441,522.6875,130.3441,510.6875,118.3441,522.6875,106.3441" style="stroke:#181818;stroke-width:0.5;"/><text fill="#000000" font-family="sans-serif" font-size="11" lengthAdjust="spacing" textLength="162" x="522.6875" y="122.6121">Simple Flow ou Complex Flow?</text><text fill="#000000" font-family="sans-serif" font-size="11" lengthAdjust="spacing" textLength="35" x="475.6875" y="115.1211">Simple</text><text fill="#000000" font-family="sans-serif" font-size="11" lengthAdjust="spacing" textLength="99" x="696.6875" y="115.1211">Complex - UseCase</text><rect fill="#F1F1F1" height="36.3441" rx="12.5" ry="12.5" style="stroke:#181818;stroke-width:0.5;" width="265" x="91.5" y="140.3441"/><text fill="#000000" font-family="sans-serif" font-size="12" lengthAdjust="spacing" textLength="245" x="101.5" y="163.1722">BusinessService ou ClientService executado</text><rect fill="#F1F1F1" height="36.3441" rx="12.5" ry="12.5" style="stroke:#181818;stroke-width:0.5;" width="214" x="117" y="246.1792"/><text fill="#000000" font-family="sans-serif" font-size="12" lengthAdjust="spacing" textLength="194" x="127" y="269.0073">Controller recebe Exception / Error</text><rect fill="#F1F1F1" height="36.3441" rx="12.5" ry="12.5" style="stroke:#181818;stroke-width:0.5;" width="426" x="11" y="312.9463"/><text fill="#000000" font-family="sans-serif" font-size="12" lengthAdjust="spacing" textLength="172" x="21" y="335.7744">ResponseService formata para</text><text fill="#000000" font-family="sans-serif" font-size="12" font-weight="bold" lengthAdjust="spacing" textLength="139" x="196" y="335.7744">Unified JSON Response</text><text fill="#000000" font-family="sans-serif" font-size="12" lengthAdjust="spacing" textLength="89" x="338" y="335.7744">(ex: 400 ou 502)</text><ellipse cx="224" cy="395.2904" fill="none" rx="11" ry="11" style="stroke:#222222;stroke-width:1.0;"/><ellipse cx="224" cy="395.2904" fill="#222222" rx="6" ry="6" style="stroke:#222222;stroke-width:1.0;"/><polygon fill="#F1F1F1" points="125,196.6882,323,196.6882,335,208.6882,323,220.6882,125,220.6882,113,208.6882,125,196.6882" style="stroke:#181818;stroke-width:0.5;"/><text fill="#000000" font-family="sans-serif" font-size="11" lengthAdjust="spacing" textLength="19" x="228" y="232.4471">Sim</text><text fill="#000000" font-family="sans-serif" font-size="11" lengthAdjust="spacing" textLength="198" x="125" y="212.9562">Falha na L&#243;gica ou Chamada Externa?</text><text fill="#000000" font-family="sans-serif" font-size="11" lengthAdjust="spacing" textLength="21" x="335" y="205.4653">N&#227;o</text><rect fill="#F1F1F1" height="36.3441" rx="12.5" ry="12.5" style="stroke:#181818;stroke-width:0.5;" width="211" x="877.875" y="140.3441"/><text fill="#000000" font-family="sans-serif" font-size="12" lengthAdjust="spacing" textLength="82" x="887.875" y="163.1722">UseCase inicia</text><text fill="#000000" font-family="sans-serif" font-size="12" font-weight="bold" lengthAdjust="spacing" textLength="106" x="972.875" y="163.1722">ExecutionContext</text><rect fill="none" height="931.4586" style="stroke:#000000;stroke-width:1.5;" width="868" x="479" y="196.6882"/><path d="M646,196.6882 L646,208.7561 L636,218.7561 L479,218.7561 " fill="none" style="stroke:#000000;stroke-width:1.5;"/><text fill="#000000" font-family="sans-serif" font-size="14" lengthAdjust="spacing" textLength="157" x="482" y="212.6542">BRDD UseCase Pipeline</text><rect fill="#F1F1F1" height="36.3441" rx="12.5" ry="12.5" style="stroke:#181818;stroke-width:0.5;" width="251" x="857.875" y="235.7561"/><text fill="#000000" font-family="sans-serif" font-size="12" lengthAdjust="spacing" textLength="231" x="867.875" y="258.5842">EnrichService (Opcional - Apenas Buscas)</text><rect fill="#F1F1F1" height="36.3441" rx="12.5" ry="12.5" style="stroke:#181818;stroke-width:0.5;" width="285" x="840.875" y="352.0142"/><text fill="#000000" font-family="sans-serif" font-size="12" lengthAdjust="spacing" textLength="265" x="850.875" y="374.8423">Retorna ExecutionContext com status Error/500</text><ellipse cx="983.375" cy="434.3583" fill="none" rx="11" ry="11" style="stroke:#222222;stroke-width:1.0;"/><ellipse cx="983.375" cy="434.3583" fill="#222222" rx="6" ry="6" style="stroke:#222222;stroke-width:1.0;"/><polygon fill="#F1F1F1" points="923.375,302.5233,1043.375,302.5233,1055.375,314.5233,1043.375,326.5233,923.375,326.5233,911.375,314.5233,923.375,302.5233" style="stroke:#181818;stroke-width:0.5;"/><text fill="#000000" font-family="sans-serif" font-size="11" lengthAdjust="spacing" textLength="19" x="987.375" y="338.2822">Sim</text><text fill="#000000" font-family="sans-serif" font-size="11" lengthAdjust="spacing" textLength="120" x="923.375" y="318.7913">Erro Inesperado Infra?</text><text fill="#000000" font-family="sans-serif" font-size="11" lengthAdjust="spacing" textLength="21" x="1055.375" y="311.3003">N&#227;o</text><rect fill="#F1F1F1" height="36.3441" rx="12.5" ry="12.5" style="stroke:#181818;stroke-width:0.5;" width="335" x="815.875" y="487.3583"/><text fill="#000000" font-family="sans-serif" font-size="12" lengthAdjust="spacing" textLength="315" x="825.875" y="510.1864">ValidateService verifica regras (Dados Pre-enriquecidos)</text><rect fill="#F1F1F1" height="36.3441" rx="12.5" ry="12.5" style="stroke:#181818;stroke-width:0.5;" width="282" x="842.375" y="593.1934"/><text fill="#000000" font-family="sans-serif" font-size="12" lengthAdjust="spacing" textLength="92" x="852.375" y="616.0215">Adiciona Erro ao</text><text fill="#000000" font-family="sans-serif" font-size="12" font-weight="bold" lengthAdjust="spacing" textLength="109" x="947.375" y="616.0215">ValidationContext</text><text fill="#000000" font-family="sans-serif" font-size="12" lengthAdjust="spacing" textLength="55" x="1059.375" y="616.0215">(ex: R001)</text><rect fill="#F1F1F1" height="36.3441" rx="12.5" ry="12.5" style="stroke:#181818;stroke-width:0.5;" width="371" x="797.875" y="649.5375"/><text fill="#000000" font-family="sans-serif" font-size="12" lengthAdjust="spacing" textLength="351" x="807.875" y="672.3656">Retorna ExecutionContext com status UnprocessableEntity/422</text><ellipse cx="983.375" cy="729.0466" fill="none" rx="11" ry="11" style="stroke:#222222;stroke-width:1.0;"/><ellipse cx="983.375" cy="729.0466" fill="#222222" rx="6" ry="6" style="stroke:#222222;stroke-width:1.0;"/><polygon fill="#F1F1F1" points="901.375,543.7025,1065.375,543.7025,1077.375,555.7025,1065.375,567.7025,901.375,567.7025,889.375,555.7025,901.375,543.7025" style="stroke:#181818;stroke-width:0.5;"/><text fill="#000000" font-family="sans-serif" font-size="11" lengthAdjust="spacing" textLength="19" x="987.375" y="579.4614">Sim</text><text fill="#000000" font-family="sans-serif" font-size="11" lengthAdjust="spacing" textLength="164" x="901.375" y="559.9704">Regras de Neg&#243;cio Quebradas?</text><text fill="#000000" font-family="sans-serif" font-size="11" lengthAdjust="spacing" textLength="21" x="1077.375" y="552.4795">N&#227;o</text><rect fill="none" height="344.1003" style="stroke:#000000;stroke-width:1.5;" width="848" x="489" y="772.0466"/><path d="M683,772.0466 L683,784.1145 L673,794.1145 L489,794.1145 " fill="none" style="stroke:#000000;stroke-width:1.5;"/><text fill="#000000" font-family="sans-serif" font-size="14" lengthAdjust="spacing" textLength="184" x="492" y="788.0125">Principal Flow / Side Effects</text><rect fill="#F1F1F1" height="36.3441" rx="12.5" ry="12.5" style="stroke:#181818;stroke-width:0.5;" width="265" x="850.875" y="811.1145"/><text fill="#000000" font-family="sans-serif" font-size="12" lengthAdjust="spacing" textLength="245" x="860.875" y="833.9426">BusinessService ou ClientService executado</text><polygon fill="#F1F1F1" points="884.375,867.4586,1082.375,867.4586,1094.375,879.4586,1082.375,891.4586,884.375,891.4586,872.375,879.4586,884.375,867.4586" style="stroke:#181818;stroke-width:0.5;"/><text fill="#000000" font-family="sans-serif" font-size="11" lengthAdjust="spacing" textLength="198" x="884.375" y="883.7266">Falha na L&#243;gica ou Chamada Externa?</text><text fill="#000000" font-family="sans-serif" font-size="11" lengthAdjust="spacing" textLength="19" x="853.375" y="876.2356">Sim</text><text fill="#000000" font-family="sans-serif" font-size="11" lengthAdjust="spacing" textLength="41" x="1094.375" y="876.2356">Sucesso</text><polygon fill="#F1F1F1" points="701.75,901.4586,824.75,901.4586,836.75,913.4586,824.75,925.4586,701.75,925.4586,689.75,913.4586,701.75,901.4586" style="stroke:#181818;stroke-width:0.5;"/><text fill="#000000" font-family="sans-serif" font-size="11" lengthAdjust="spacing" textLength="123" x="701.75" y="917.7266">Permite Retry/Fallback?</text><text fill="#000000" font-family="sans-serif" font-size="11" lengthAdjust="spacing" textLength="19" x="670.75" y="910.2356">Sim</text><text fill="#000000" font-family="sans-serif" font-size="11" lengthAdjust="spacing" textLength="21" x="836.75" y="910.2356">N&#227;o</text><rect fill="#F1F1F1" height="36.3441" rx="12.5" ry="12.5" style="stroke:#181818;stroke-width:0.5;" width="158" x="546" y="935.4586"/><text fill="#000000" font-family="sans-serif" font-size="12" lengthAdjust="spacing" textLength="138" x="556" y="958.2867">Aplica L&#243;gica de Fallback</text><rect fill="#F1F1F1" height="36.3441" rx="12.5" ry="12.5" style="stroke:#181818;stroke-width:0.5;" width="212" x="519" y="991.8027"/><text fill="#000000" font-family="sans-serif" font-size="12" lengthAdjust="spacing" textLength="192" x="529" y="1014.6308">Registra Fallback Effect no Context</text><rect fill="#F1F1F1" height="36.3441" rx="12.5" ry="12.5" style="stroke:#181818;stroke-width:0.5;" width="301" x="751" y="935.4586"/><text fill="#000000" font-family="sans-serif" font-size="12" lengthAdjust="spacing" textLength="281" x="761" y="958.2867">Adiciona Erro no Context (Business/External Error)</text><rect fill="#F1F1F1" height="36.3441" rx="12.5" ry="12.5" style="stroke:#181818;stroke-width:0.5;" width="256" x="773.5" y="991.8027"/><text fill="#000000" font-family="sans-serif" font-size="12" lengthAdjust="spacing" textLength="236" x="783.5" y="1014.6308">Retorna ExecutionContext (ex: 400 ou 502)</text><ellipse cx="901.5" cy="1059.1468" fill="none" rx="11" ry="11" style="stroke:#222222;stroke-width:1.0;"/><ellipse cx="901.5" cy="1059.1468" fill="#222222" rx="6" ry="6" style="stroke:#222222;stroke-width:1.0;"/><rect fill="#F1F1F1" height="36.3441" rx="12.5" ry="12.5" style="stroke:#181818;stroke-width:0.5;" width="243" x="1082" y="901.4586"/><text fill="#000000" font-family="sans-serif" font-size="12" lengthAdjust="spacing" textLength="223" x="1092" y="924.2867">Registra Efeito de Sucesso (se aplic&#225;vel)</text><polygon fill="#F1F1F1" points="983.375,1080.1468,995.375,1092.1468,983.375,1104.1468,971.375,1092.1468,983.375,1080.1468" style="stroke:#181818;stroke-width:0.5;"/><polygon fill="#F1F1F1" points="603.6875,1134.1468,615.6875,1146.1468,603.6875,1158.1468,591.6875,1146.1468,603.6875,1134.1468" style="stroke:#181818;stroke-width:0.5;"/><rect fill="#F1F1F1" height="36.3441" rx="12.5" ry="12.5" style="stroke:#181818;stroke-width:0.5;" width="305" x="451.1875" y="1178.1468"/><text fill="#000000" font-family="sans-serif" font-size="12" lengthAdjust="spacing" textLength="143" x="461.1875" y="1200.9749">ResponseService formata</text><text fill="#000000" font-family="sans-serif" font-size="12" font-weight="bold" lengthAdjust="spacing" textLength="139" x="607.1875" y="1200.9749">Unified JSON Response</text><rect fill="#F1F1F1" height="36.3441" rx="12.5" ry="12.5" style="stroke:#181818;stroke-width:0.5;" width="151" x="528.1875" y="1234.4909"/><text fill="#000000" font-family="sans-serif" font-size="12" lengthAdjust="spacing" textLength="131" x="538.1875" y="1257.319">Retorna Resposta HTTP</text><ellipse cx="603.6875" cy="1301.8351" fill="none" rx="11" ry="11" style="stroke:#222222;stroke-width:1.0;"/><ellipse cx="603.6875" cy="1301.8351" fill="#222222" rx="6" ry="6" style="stroke:#222222;stroke-width:1.0;"/><line style="stroke:#181818;stroke-width:1.0;" x1="603.6875" x2="603.6875" y1="30" y2="50"/><polygon fill="#181818" points="599.6875,40,603.6875,50,607.6875,40,603.6875,44" style="stroke:#181818;stroke-width:1.0;"/><line style="stroke:#181818;stroke-width:1.0;" x1="224" x2="224" y1="282.5233" y2="312.9463"/><polygon fill="#181818" points="220,302.9463,224,312.9463,228,302.9463,224,306.9463" style="stroke:#181818;stroke-width:1.0;"/><line style="stroke:#181818;stroke-width:1.0;" x1="224" x2="224" y1="349.2904" y2="384.2904"/><polygon fill="#181818" points="220,374.2904,224,384.2904,228,374.2904,224,378.2904" style="stroke:#181818;stroke-width:1.0;"/><line style="stroke:#181818;stroke-width:1.0;" x1="224" x2="224" y1="220.6882" y2="246.1792"/><polygon fill="#181818" points="220,236.1792,224,246.1792,228,236.1792,224,240.1792" style="stroke:#181818;stroke-width:1.0;"/><line style="stroke:#181818;stroke-width:1.0;" x1="335" x2="447" y1="208.6882" y2="208.6882"/><polygon fill="#181818" points="443,688.0466,447,698.0466,451,688.0466,447,692.0466" style="stroke:#181818;stroke-width:1.0;"/><line style="stroke:#181818;stroke-width:1.0;" x1="447" x2="447" y1="208.6882" y2="1146.1468"/><line style="stroke:#181818;stroke-width:1.0;" x1="447" x2="591.6875" y1="1146.1468" y2="1146.1468"/><polygon fill="#181818" points="581.6875,1142.1468,591.6875,1146.1468,581.6875,1150.1468,585.6875,1146.1468" style="stroke:#181818;stroke-width:1.0;"/><line style="stroke:#181818;stroke-width:1.0;" x1="224" x2="224" y1="176.6882" y2="196.6882"/><polygon fill="#181818" points="220,186.6882,224,196.6882,228,186.6882,224,190.6882" style="stroke:#181818;stroke-width:1.0;"/><line style="stroke:#181818;stroke-width:1.0;" x1="983.375" x2="983.375" y1="388.3583" y2="423.3583"/><polygon fill="#181818" points="979.375,413.3583,983.375,423.3583,987.375,413.3583,983.375,417.3583" style="stroke:#181818;stroke-width:1.0;"/><line style="stroke:#181818;stroke-width:1.0;" x1="983.375" x2="983.375" y1="326.5233" y2="352.0142"/><polygon fill="#181818" points="979.375,342.0142,983.375,352.0142,987.375,342.0142,983.375,346.0142" style="stroke:#181818;stroke-width:1.0;"/><line style="stroke:#181818;stroke-width:1.0;" x1="1055.375" x2="1135.875" y1="314.5233" y2="314.5233"/><polygon fill="#181818" points="1131.875,385.6863,1135.875,395.6863,1139.875,385.6863,1135.875,389.6863" style="stroke:#181818;stroke-width:1.0;"/><line style="stroke:#181818;stroke-width:1.0;" x1="1135.875" x2="1135.875" y1="314.5233" y2="467.3583"/><line style="stroke:#181818;stroke-width:1.0;" x1="1135.875" x2="983.375" y1="467.3583" y2="467.3583"/><line style="stroke:#181818;stroke-width:1.0;" x1="983.375" x2="983.375" y1="467.3583" y2="487.3583"/><polygon fill="#181818" points="979.375,477.3583,983.375,487.3583,987.375,477.3583,983.375,481.3583" style="stroke:#181818;stroke-width:1.0;"/><line style="stroke:#181818;stroke-width:1.0;" x1="983.375" x2="983.375" y1="272.1003" y2="302.5233"/><polygon fill="#181818" points="979.375,292.5233,983.375,302.5233,987.375,292.5233,983.375,296.5233" style="stroke:#181818;stroke-width:1.0;"/><line style="stroke:#181818;stroke-width:1.0;" x1="983.375" x2="983.375" y1="629.5375" y2="649.5375"/><polygon fill="#181818" points="979.375,639.5375,983.375,649.5375,987.375,639.5375,983.375,643.5375" style="stroke:#181818;stroke-width:1.0;"/><line style="stroke:#181818;stroke-width:1.0;" x1="983.375" x2="983.375" y1="685.8816" y2="718.0466"/><polygon fill="#181818" points="979.375,708.0466,983.375,718.0466,987.375,708.0466,983.375,712.0466" style="stroke:#181818;stroke-width:1.0;"/><line style="stroke:#181818;stroke-width:1.0;" x1="983.375" x2="983.375" y1="567.7025" y2="593.1934"/><polygon fill="#181818" points="979.375,583.1934,983.375,593.1934,987.375,583.1934,983.375,587.1934" style="stroke:#181818;stroke-width:1.0;"/><line style="stroke:#181818;stroke-width:1.0;" x1="1077.375" x2="1178.875" y1="555.7025" y2="555.7025"/><polygon fill="#181818" points="1174.875,647.5375,1178.875,657.5375,1182.875,647.5375,1178.875,651.5375" style="stroke:#181818;stroke-width:1.0;"/><line style="stroke:#181818;stroke-width:1.0;" x1="1178.875" x2="1178.875" y1="555.7025" y2="762.0466"/><line style="stroke:#181818;stroke-width:1.0;" x1="1178.875" x2="983.375" y1="762.0466" y2="762.0466"/><line style="stroke:#181818;stroke-width:1.0;" x1="983.375" x2="983.375" y1="762.0466" y2="811.1145"/><polygon fill="#181818" points="979.375,801.1145,983.375,811.1145,987.375,801.1145,983.375,805.1145" style="stroke:#181818;stroke-width:1.0;"/><line style="stroke:#181818;stroke-width:1.0;" x1="983.375" x2="983.375" y1="523.7025" y2="543.7025"/><polygon fill="#181818" points="979.375,533.7025,983.375,543.7025,987.375,533.7025,983.375,537.7025" style="stroke:#181818;stroke-width:1.0;"/><line style="stroke:#181818;stroke-width:1.0;" x1="625" x2="625" y1="971.8027" y2="991.8027"/><polygon fill="#181818" points="621,981.8027,625,991.8027,629,981.8027,625,985.8027" style="stroke:#181818;stroke-width:1.0;"/><line style="stroke:#181818;stroke-width:1.0;" x1="901.5" x2="901.5" y1="971.8027" y2="991.8027"/><polygon fill="#181818" points="897.5,981.8027,901.5,991.8027,905.5,981.8027,901.5,985.8027" style="stroke:#181818;stroke-width:1.0;"/><line style="stroke:#181818;stroke-width:1.0;" x1="901.5" x2="901.5" y1="1028.1468" y2="1048.1468"/><polygon fill="#181818" points="897.5,1038.1468,901.5,1048.1468,905.5,1038.1468,901.5,1042.1468" style="stroke:#181818;stroke-width:1.0;"/><line style="stroke:#181818;stroke-width:1.0;" x1="689.75" x2="625" y1="913.4586" y2="913.4586"/><line style="stroke:#181818;stroke-width:1.0;" x1="625" x2="625" y1="913.4586" y2="935.4586"/><polygon fill="#181818" points="621,925.4586,625,935.4586,629,925.4586,625,929.4586" style="stroke:#181818;stroke-width:1.0;"/><line style="stroke:#181818;stroke-width:1.0;" x1="836.75" x2="901.5" y1="913.4586" y2="913.4586"/><line style="stroke:#181818;stroke-width:1.0;" x1="901.5" x2="901.5" y1="913.4586" y2="935.4586"/><polygon fill="#181818" points="897.5,925.4586,901.5,935.4586,905.5,925.4586,901.5,929.4586" style="stroke:#181818;stroke-width:1.0;"/><line style="stroke:#181818;stroke-width:1.0;" x1="625" x2="625" y1="1028.1468" y2="1092.1468"/><line style="stroke:#181818;stroke-width:1.0;" x1="625" x2="971.375" y1="1092.1468" y2="1092.1468"/><polygon fill="#181818" points="961.375,1088.1468,971.375,1092.1468,961.375,1096.1468,965.375,1092.1468" style="stroke:#181818;stroke-width:1.0;"/><line style="stroke:#181818;stroke-width:1.0;" x1="872.375" x2="763.25" y1="879.4586" y2="879.4586"/><line style="stroke:#181818;stroke-width:1.0;" x1="763.25" x2="763.25" y1="879.4586" y2="901.4586"/><polygon fill="#181818" points="759.25,891.4586,763.25,901.4586,767.25,891.4586,763.25,895.4586" style="stroke:#181818;stroke-width:1.0;"/><line style="stroke:#181818;stroke-width:1.0;" x1="1094.375" x2="1203.5" y1="879.4586" y2="879.4586"/><line style="stroke:#181818;stroke-width:1.0;" x1="1203.5" x2="1203.5" y1="879.4586" y2="901.4586"/><polygon fill="#181818" points="1199.5,891.4586,1203.5,901.4586,1207.5,891.4586,1203.5,895.4586" style="stroke:#181818;stroke-width:1.0;"/><line style="stroke:#181818;stroke-width:1.0;" x1="1203.5" x2="1203.5" y1="937.8027" y2="1092.1468"/><line style="stroke:#181818;stroke-width:1.0;" x1="1203.5" x2="995.375" y1="1092.1468" y2="1092.1468"/><polygon fill="#181818" points="1005.375,1088.1468,995.375,1092.1468,1005.375,1096.1468,1001.375,1092.1468" style="stroke:#181818;stroke-width:1.0;"/><line style="stroke:#181818;stroke-width:1.0;" x1="983.375" x2="983.375" y1="847.4586" y2="867.4586"/><polygon fill="#181818" points="979.375,857.4586,983.375,867.4586,987.375,857.4586,983.375,861.4586" style="stroke:#181818;stroke-width:1.0;"/><line style="stroke:#181818;stroke-width:1.0;" x1="983.375" x2="983.375" y1="176.6882" y2="235.7561"/><polygon fill="#181818" points="979.375,225.7561,983.375,235.7561,987.375,225.7561,983.375,229.7561" style="stroke:#181818;stroke-width:1.0;"/><line style="stroke:#181818;stroke-width:1.0;" x1="510.6875" x2="224" y1="118.3441" y2="118.3441"/><line style="stroke:#181818;stroke-width:1.0;" x1="224" x2="224" y1="118.3441" y2="140.3441"/><polygon fill="#181818" points="220,130.3441,224,140.3441,228,130.3441,224,134.3441" style="stroke:#181818;stroke-width:1.0;"/><line style="stroke:#181818;stroke-width:1.0;" x1="696.6875" x2="983.375" y1="118.3441" y2="118.3441"/><line style="stroke:#181818;stroke-width:1.0;" x1="983.375" x2="983.375" y1="118.3441" y2="140.3441"/><polygon fill="#181818" points="979.375,130.3441,983.375,140.3441,987.375,130.3441,983.375,134.3441" style="stroke:#181818;stroke-width:1.0;"/><line style="stroke:#181818;stroke-width:1.0;" x1="983.375" x2="983.375" y1="1104.1468" y2="1146.1468"/><line style="stroke:#181818;stroke-width:1.0;" x1="983.375" x2="615.6875" y1="1146.1468" y2="1146.1468"/><polygon fill="#181818" points="625.6875,1142.1468,615.6875,1146.1468,625.6875,1150.1468,621.6875,1146.1468" style="stroke:#181818;stroke-width:1.0;"/><line style="stroke:#181818;stroke-width:1.0;" x1="603.6875" x2="603.6875" y1="86.3441" y2="106.3441"/><polygon fill="#181818" points="599.6875,96.3441,603.6875,106.3441,607.6875,96.3441,603.6875,100.3441" style="stroke:#181818;stroke-width:1.0;"/><line style="stroke:#181818;stroke-width:1.0;" x1="603.6875" x2="603.6875" y1="1158.1468" y2="1178.1468"/><polygon fill="#181818" points="599.6875,1168.1468,603.6875,1178.1468,607.6875,1168.1468,603.6875,1172.1468" style="stroke:#181818;stroke-width:1.0;"/><line style="stroke:#181818;stroke-width:1.0;" x1="603.6875" x2="603.6875" y1="1214.4909" y2="1234.4909"/><polygon fill="#181818" points="599.6875,1224.4909,603.6875,1234.4909,607.6875,1224.4909,603.6875,1228.4909" style="stroke:#181818;stroke-width:1.0;"/><line style="stroke:#181818;stroke-width:1.0;" x1="603.6875" x2="603.6875" y1="1270.8351" y2="1290.8351"/><polygon fill="#181818" points="599.6875,1280.8351,603.6875,1290.8351,607.6875,1280.8351,603.6875,1284.8351" style="stroke:#181818;stroke-width:1.0;"/><!--SRC=[dPHDRjim48NtEiKWAzb0O3L8Dj6Yo8-2jYWIrqww7rEZc2XDgYILEYXwcA97o15yiGubqHPSPv4k34Zo3EUzxv5q7grFalEPQJnPcC2LqTuQfVZ5ag05mNWye-yDEJyUvqaYAqZdSbKhWXjbVe1fk2MyhjltzoFmIzAnPfG0d5ysJcfoRaxsIGfgMvGaxUC7MfDeF9Ocv_8mu0RL4a4ZVDwyF4g1RSiILrWY56iMgd4uA4pXEVzABzQ2QY-DPcE5jSRcNUMCN6sqeoYWCdQ57g56Y-ptGSjAKWcVvdUt46l7OqXfVGwdMHRad6KdesurvqtD3wGSGNgx-ME27DAbh9Aa-nW17SE3eojq7PR-6QIMGeQnHOk1rGOZjEvuGn3bPMlYw79sVHtNWAciIJ7O8_ZPwkYi5TfAiOp6qhjQS2SgddrHaqO7d8P0rsiFi0CO-CW1rMGv0twix06yBJPl63ti2mLXLem1VUCwp9EpBClxhXxFFg0jedRbhwXaYNuRo1DPZe23j_HeMNHwpSeSJ2qT4nlaxIWaVnYuc7M59S4jFMvUs3LyQMZ1Zj0TD7DHoXPDgnZGS02zYc42NUQpB7itoj-2uK7NrWZUzBXGL6WEy7boUdBo5YY3tATMQY5hZh4zSnEOIpPQL1K9xsB-Rpvf4Tr_dRROF2Mxafxuc7ZxFE6br0B5jyFrWNgjmeGuYLt4bdnOncbAv_amndzxiw0DzBHtzViC3mQyQuGqOfhqxbItQqTx4bv9-V0ji9VhBikXndaJjiH0viveKP7q9W3fYo3b3WouDh-VI6t7x5RzbOHVlsDUlTDUlSxoPEkn_SWx5pxStq_vqcbj_0K0]--></g></svg>