<svg xmlns="http://www.w3.org/2000/svg" xmlns:xlink="http://www.w3.org/1999/xlink" contentStyleType="text/css" data-diagram-type="CLASS" height="564px" preserveAspectRatio="none" style="width:541px;height:564px;background:#FFFFFF;" version="1.1" viewBox="0 0 541 564" width="541px" zoomAndPan="magnify"><?plantuml 1.2026.3beta6?><defs/><g><!--class IValidationContext--><g class="entity" data-qualified-name="IValidationContext" data-source-line="1" id="ent0002"><rect fill="#F1F1F1" height="96.8906" rx="2.5" ry="2.5" style="stroke:#181818;stroke-width:0.5;" width="302.2471" x="154.18" y="452.86"/><ellipse cx="236.3343" cy="468.86" fill="#B4A7E5" rx="11" ry="11" style="stroke:#181818;stroke-width:1;"/><path d="M232.2562,464.6256 L232.2562,462.4694 L239.6468,462.4694 L239.6468,464.6256 L237.178,464.6256 L237.178,472.7038 L239.6468,472.7038 L239.6468,474.86 L232.2562,474.86 L232.2562,472.7038 L234.7249,472.7038 L234.7249,464.6256 L232.2562,464.6256 Z " fill="#000000"/><text fill="#000000" font-family="sans-serif" font-size="14" font-style="italic" lengthAdjust="spacing" textLength="129.4385" x="256.8343" y="473.7067">IValidationContext</text><line style="stroke:#181818;stroke-width:0.5;" x1="155.18" x2="455.4271" y1="484.86" y2="484.86"/><line style="stroke:#181818;stroke-width:0.5;" x1="155.18" x2="455.4271" y1="492.86" y2="492.86"/><g data-visibility-modifier="PUBLIC_METHOD"><ellipse cx="165.18" cy="506.5084" fill="#84BE84" rx="3" ry="3" style="stroke:#038048;stroke-width:1;"/></g><text fill="#000000" font-family="sans-serif" font-size="14" lengthAdjust="spacing" textLength="276.2471" x="174.18" y="509.8551">addError(code: string, message: string)</text><g data-visibility-modifier="PUBLIC_METHOD"><ellipse cx="165.18" cy="522.8053" fill="#84BE84" rx="3" ry="3" style="stroke:#038048;stroke-width:1;"/></g><text fill="#000000" font-family="sans-serif" font-size="14" lengthAdjust="spacing" textLength="142.7822" x="174.18" y="526.152">hasErrors(): boolean</text><g data-visibility-modifier="PUBLIC_METHOD"><ellipse cx="165.18" cy="539.1022" fill="#84BE84" rx="3" ry="3" style="stroke:#038048;stroke-width:1;"/></g><text fill="#000000" font-family="sans-serif" font-size="14" lengthAdjust="spacing" textLength="168.875" x="174.18" y="542.4489">getErrors(): IBaseError[]</text></g><!--class IExecutionContext--><g class="entity" data-qualified-name="IExecutionContext" data-source-line="7" id="ent0003"><rect fill="#F1F1F1" height="162.0781" rx="2.5" ry="2.5" style="stroke:#181818;stroke-width:0.5;" width="233.5322" x="188.54" y="229.78"/><ellipse cx="236.8803" cy="245.78" fill="#B4A7E5" rx="11" ry="11" style="stroke:#181818;stroke-width:1;"/><path d="M232.8022,241.5456 L232.8022,239.3894 L240.1928,239.3894 L240.1928,241.5456 L237.7241,241.5456 L237.7241,249.6237 L240.1928,249.6237 L240.1928,251.78 L232.8022,251.78 L232.8022,249.6237 L235.271,249.6237 L235.271,241.5456 L232.8022,241.5456 Z " fill="#000000"/><text fill="#000000" font-family="sans-serif" font-size="14" font-style="italic" lengthAdjust="spacing" textLength="128.3516" x="257.3803" y="250.6267">IExecutionContext</text><line style="stroke:#181818;stroke-width:0.5;" x1="189.54" x2="421.0722" y1="261.78" y2="261.78"/><g data-visibility-modifier="PUBLIC_FIELD"><ellipse cx="199.54" cy="275.4284" fill="none" rx="3" ry="3" style="stroke:#038048;stroke-width:1;"/></g><text fill="#000000" font-family="sans-serif" font-size="14" lengthAdjust="spacing" textLength="66.4385" x="208.54" y="278.7751">data: any</text><g data-visibility-modifier="PUBLIC_FIELD"><ellipse cx="199.54" cy="291.7253" fill="none" rx="3" ry="3" style="stroke:#038048;stroke-width:1;"/></g><text fill="#000000" font-family="sans-serif" font-size="14" lengthAdjust="spacing" textLength="207.5322" x="208.54" y="295.072">validation: IValidationContext</text><g data-visibility-modifier="PUBLIC_FIELD"><ellipse cx="199.54" cy="308.0222" fill="none" rx="3" ry="3" style="stroke:#038048;stroke-width:1;"/></g><text fill="#000000" font-family="sans-serif" font-size="14" lengthAdjust="spacing" textLength="108.8281" x="208.54" y="311.3689">setters: string[]</text><g data-visibility-modifier="PUBLIC_FIELD"><ellipse cx="199.54" cy="324.3191" fill="none" rx="3" ry="3" style="stroke:#038048;stroke-width:1;"/></g><text fill="#000000" font-family="sans-serif" font-size="14" lengthAdjust="spacing" textLength="107.8438" x="208.54" y="327.6657">effects: string[]</text><line style="stroke:#181818;stroke-width:0.5;" x1="189.54" x2="421.0722" y1="334.9675" y2="334.9675"/><g data-visibility-modifier="PUBLIC_METHOD"><ellipse cx="199.54" cy="348.6159" fill="#84BE84" rx="3" ry="3" style="stroke:#038048;stroke-width:1;"/></g><text fill="#000000" font-family="sans-serif" font-size="14" lengthAdjust="spacing" textLength="197.4834" x="208.54" y="351.9626">set(code: string, value: any)</text><g data-visibility-modifier="PUBLIC_METHOD"><ellipse cx="199.54" cy="364.9128" fill="#84BE84" rx="3" ry="3" style="stroke:#038048;stroke-width:1;"/></g><text fill="#000000" font-family="sans-serif" font-size="14" lengthAdjust="spacing" textLength="160.8975" x="208.54" y="368.2595">addEffect(code: string)</text><g data-visibility-modifier="PUBLIC_METHOD"><ellipse cx="199.54" cy="381.2097" fill="#84BE84" rx="3" ry="3" style="stroke:#038048;stroke-width:1;"/></g><text fill="#000000" font-family="sans-serif" font-size="14" lengthAdjust="spacing" textLength="127.7773" x="208.54" y="384.5564">is_valid(): boolean</text></g><!--class IUseCase--><g class="entity" data-qualified-name="IUseCase" data-source-line="17" id="ent0004"><rect fill="#F1F1F1" height="64.2969" rx="2.5" ry="2.5" style="stroke:#181818;stroke-width:0.5;" width="320.6084" x="7" y="47.74"/><ellipse cx="81.2593" cy="63.74" fill="#B4A7E5" rx="11" ry="11" style="stroke:#181818;stroke-width:1;"/><path d="M77.1812,59.5056 L77.1812,57.3494 L84.5718,57.3494 L84.5718,59.5056 L82.103,59.5056 L82.103,67.5838 L84.5718,67.5838 L84.5718,69.74 L77.1812,69.74 L77.1812,67.5838 L79.6499,67.5838 L79.6499,59.5056 L77.1812,59.5056 Z " fill="#000000"/><text fill="#000000" font-family="sans-serif" font-size="14" font-style="italic" lengthAdjust="spacing" textLength="64.5449" x="101.7593" y="68.5867">IUseCase</text><rect fill="#FFFFFF" height="15.9688" style="stroke:#181818;stroke-width:1;stroke-dasharray:2,2;" width="97.0449" x="233.5635" y="44.74"/><text fill="#000000" font-family="sans-serif" font-size="12" font-style="italic" lengthAdjust="spacing" textLength="95.0449" x="234.5635" y="56.8787">TInput, TOutput</text><line style="stroke:#181818;stroke-width:0.5;" x1="8" x2="326.6084" y1="79.74" y2="79.74"/><line style="stroke:#181818;stroke-width:0.5;" x1="8" x2="326.6084" y1="87.74" y2="87.74"/><g data-visibility-modifier="PUBLIC_METHOD"><ellipse cx="18" cy="101.3884" fill="#84BE84" rx="3" ry="3" style="stroke:#038048;stroke-width:1;"/></g><text fill="#000000" font-family="sans-serif" font-size="14" lengthAdjust="spacing" textLength="294.6084" x="27" y="104.7351">execute(input: TInput): IExecutionContext</text></g><!--class StandardResponse--><g class="entity" data-qualified-name="StandardResponse" data-source-line="21" id="ent0005"><rect fill="#F1F1F1" height="145.7813" rx="2.5" ry="2.5" style="stroke:#181818;stroke-width:0.5;" width="163.8037" x="362.4" y="7"/><ellipse cx="377.4" cy="23" fill="#ADD1B2" rx="11" ry="11" style="stroke:#181818;stroke-width:1;"/><path d="M380.3688,28.6406 Q379.7906,28.9375 379.15,29.0781 Q378.5094,29.2344 377.8063,29.2344 Q375.3063,29.2344 373.9781,27.5938 Q372.6656,25.9375 372.6656,22.8125 Q372.6656,19.6875 373.9781,18.0313 Q375.3063,16.375 377.8063,16.375 Q378.5094,16.375 379.15,16.5313 Q379.8063,16.6875 380.3688,16.9844 L380.3688,19.7031 Q379.7438,19.125 379.15,18.8594 Q378.5563,18.5781 377.9313,18.5781 Q376.5875,18.5781 375.9,19.6563 Q375.2125,20.7188 375.2125,22.8125 Q375.2125,24.9063 375.9,25.9844 Q376.5875,27.0469 377.9313,27.0469 Q378.5563,27.0469 379.15,26.7813 Q379.7438,26.5 380.3688,25.9219 L380.3688,28.6406 Z " fill="#000000"/><text fill="#000000" font-family="sans-serif" font-size="14" lengthAdjust="spacing" textLength="131.8037" x="391.4" y="27.8467">StandardResponse</text><line style="stroke:#181818;stroke-width:0.5;" x1="363.4" x2="525.2037" y1="39" y2="39"/><g data-visibility-modifier="PUBLIC_FIELD"><ellipse cx="373.4" cy="52.6484" fill="none" rx="3" ry="3" style="stroke:#038048;stroke-width:1;"/></g><text fill="#000000" font-family="sans-serif" font-size="14" lengthAdjust="spacing" textLength="66.4385" x="382.4" y="55.9951">data: any</text><g data-visibility-modifier="PUBLIC_FIELD"><ellipse cx="373.4" cy="68.9453" fill="none" rx="3" ry="3" style="stroke:#038048;stroke-width:1;"/></g><text fill="#000000" font-family="sans-serif" font-size="14" lengthAdjust="spacing" textLength="112.2734" x="382.4" y="72.292">message: string</text><g data-visibility-modifier="PUBLIC_FIELD"><ellipse cx="373.4" cy="85.2422" fill="none" rx="3" ry="3" style="stroke:#038048;stroke-width:1;"/></g><text fill="#000000" font-family="sans-serif" font-size="14" lengthAdjust="spacing" textLength="70.4375" x="382.4" y="88.5889">status: int</text><g data-visibility-modifier="PUBLIC_FIELD"><ellipse cx="373.4" cy="101.5391" fill="none" rx="3" ry="3" style="stroke:#038048;stroke-width:1;"/></g><text fill="#000000" font-family="sans-serif" font-size="14" lengthAdjust="spacing" textLength="134.7295" x="382.4" y="104.8857">errors: IBaseError[]</text><g data-visibility-modifier="PUBLIC_FIELD"><ellipse cx="373.4" cy="117.8359" fill="none" rx="3" ry="3" style="stroke:#038048;stroke-width:1;"/></g><text fill="#000000" font-family="sans-serif" font-size="14" lengthAdjust="spacing" textLength="108.8281" x="382.4" y="121.1826">setters: string[]</text><g data-visibility-modifier="PUBLIC_FIELD"><ellipse cx="373.4" cy="134.1328" fill="none" rx="3" ry="3" style="stroke:#038048;stroke-width:1;"/></g><text fill="#000000" font-family="sans-serif" font-size="14" lengthAdjust="spacing" textLength="107.8438" x="382.4" y="137.4795">effects: string[]</text><line style="stroke:#181818;stroke-width:0.5;" x1="363.4" x2="525.2037" y1="144.7813" y2="144.7813"/></g><!--reverse link IExecutionContext to IValidationContext--><g class="link" data-entity-1="ent0003" data-entity-2="ent0002" data-link-type="composition" data-source-line="30" id="lnk6"><path codeLine="30" d="M305.3,404.3 C305.3,424.81 305.3,434.21 305.3,452.5" fill="none" id="IExecutionContext-backto-IValidationContext" style="stroke:#181818;stroke-width:1;"/><polygon fill="#181818" points="305.3,392.3,301.3,398.3,305.3,404.3,309.3,398.3,305.3,392.3" style="stroke:#181818;stroke-width:1;"/></g><!--link IUseCase to IExecutionContext--><g class="link" data-entity-1="ent0004" data-entity-2="ent0003" data-link-type="dependency" data-source-line="31" id="lnk7"><path codeLine="31" d="M186.2,112.24 C204.36,142.37 229.4731,184.011 253.8731,224.501" fill="none" id="IUseCase-to-IExecutionContext" style="stroke:#181818;stroke-width:1;stroke-dasharray:7,7;"/><polygon fill="#181818" points="256.97,229.64,255.7507,219.8669,254.3893,225.3575,248.8987,223.9961,256.97,229.64" style="stroke:#181818;stroke-width:1;"/><text fill="#000000" font-family="sans-serif" font-size="13" lengthAdjust="spacing" textLength="47.0361" x="237.3" y="195.8469">returns</text></g><!--link StandardResponse to IExecutionContext--><g class="link" data-entity-1="ent0005" data-entity-2="ent0003" data-link-type="dependency" data-source-line="32" id="lnk8"><path codeLine="32" d="M400.51,153.01 C385.79,177.26 372.3933,199.3209 357.3033,224.1809" fill="none" id="StandardResponse-to-IExecutionContext" style="stroke:#181818;stroke-width:1;stroke-dasharray:7,7;"/><polygon fill="#181818" points="354.19,229.31,362.2794,223.692,356.7844,225.0358,355.4406,219.5409,354.19,229.31" style="stroke:#181818;stroke-width:1;"/><text fill="#000000" font-family="sans-serif" font-size="13" lengthAdjust="spacing" textLength="70.3257" x="379.3" y="195.8469">maps from</text></g><?plantuml-src bL7DJiCm3BxtANniOTi3H6W7fXrwGeB11I5aMhT4QfCgTj0Gujr9KzQnhXnsY-tFyVUZZP2hi238dx3H9OgsPcD3To_mbG1S0vRbrZdhqiAMf835QLCle2LchCT65h7lo17BQQRWpTg6qCH1JN8SvBV85Cldb-GxIVIHn7PFXJ_d47YX0ZIViVeOcQePsX729E5FFh0BT_ekLHKLCkq6x4HREE0ftij62-Bg2MwOQNwDVFugFjNqoBG9WczskUcyB61tvoKyrh_QA4gcLFTJ1GEgTsdgHVzjqI0pF0YQ4brvJznPmpJhqYIWGQgW-A0_i1jknqmcYLpYNw1qdjdLSZcNoy48MAtMCqahS2JU6KxEvFstq6B7K3dR_W00?></g></svg>